<?xml version="1.0" encoding="UTF-8" standalone="no"?>
<!-- Created with Inkscape (http://www.inkscape.org/) -->

<svg
   xmlns:dc="http://purl.org/dc/elements/1.1/"
   xmlns:cc="http://creativecommons.org/ns#"
   xmlns:rdf="http://www.w3.org/1999/02/22-rdf-syntax-ns#"
   xmlns:svg="http://www.w3.org/2000/svg"
   xmlns="http://www.w3.org/2000/svg"
   xmlns:xlink="http://www.w3.org/1999/xlink"
   xmlns:sodipodi="http://sodipodi.sourceforge.net/DTD/sodipodi-0.dtd"
   xmlns:inkscape="http://www.inkscape.org/namespaces/inkscape"
   width="1024"
   height="682"
   id="svg2"
   version="1.1"
   inkscape:version="0.47 r22583"
   sodipodi:docname="Novo documento 1">
  <defs
     id="defs4">
    <inkscape:perspective
       sodipodi:type="inkscape:persp3d"
       inkscape:vp_x="0 : 526.18109 : 1"
       inkscape:vp_y="0 : 1000 : 0"
       inkscape:vp_z="744.09448 : 526.18109 : 1"
       inkscape:persp3d-origin="372.04724 : 350.78739 : 1"
       id="perspective10" />
    <inkscape:perspective
       id="perspective2881"
       inkscape:persp3d-origin="0.5 : 0.33333333 : 1"
       inkscape:vp_z="1 : 0.5 : 1"
       inkscape:vp_y="0 : 1000 : 0"
       inkscape:vp_x="0 : 0.5 : 1"
       sodipodi:type="inkscape:persp3d" />
    <inkscape:perspective
       id="perspective3091"
       inkscape:persp3d-origin="0.5 : 0.33333333 : 1"
       inkscape:vp_z="1 : 0.5 : 1"
       inkscape:vp_y="0 : 1000 : 0"
       inkscape:vp_x="0 : 0.5 : 1"
       sodipodi:type="inkscape:persp3d" />
  </defs>
  <sodipodi:namedview
     id="base"
     pagecolor="#ffffff"
     bordercolor="#666666"
     borderopacity="1.0"
     inkscape:pageopacity="0.0"
     inkscape:pageshadow="2"
     inkscape:zoom="0.7"
     inkscape:cx="269.57166"
     inkscape:cy="432.97306"
     inkscape:document-units="px"
     inkscape:current-layer="g3096"
     showgrid="false"
     showborder="false"
     inkscape:showpageshadow="false"
     inkscape:window-width="1920"
     inkscape:window-height="1058"
     inkscape:window-x="1366"
     inkscape:window-y="0"
     inkscape:window-maximized="1" />
  <metadata
     id="metadata7">
    <rdf:RDF>
      <cc:Work
         rdf:about="">
        <dc:format>image/svg+xml</dc:format>
        <dc:type
           rdf:resource="http://purl.org/dc/dcmitype/StillImage" />
        <dc:title></dc:title>
      </cc:Work>
    </rdf:RDF>
  </metadata>
  <g
     inkscape:label="base"
     inkscape:groupmode="layer"
     id="layer1"
     transform="translate(20.571438,-77.076439)"
     style="display:none"
     sodipodi:insensitive="true">
    <image
       style="display:inline"
       y="24.116953"
       x="31.851303"
       id="image2883"
       height="682"
       width="1024"
       xlink:href="file:///home/antonio/Documentos/htw-berlin/MAGW/projekt/User%20Stories/depositphotos_5023738-Patient-in-reception-area-of-_1.jpg" />
  </g>
  <g
     style="display:inline"
     transform="translate(20.571438,-77.076439)"
     id="g3096"
     inkscape:groupmode="layer"
     inkscape:label="lineart">
    <path
       transform="translate(-20.571438,77.076439)"
       id="path3098"
       d="m 208.89499,200.27716 19.43275,0.35714 c -6.32421,-0.32739 -17.58158,-5.5678 -19.43275,-0.35714 z"
       style="fill:none;stroke:#000000;stroke-width:1px;stroke-linecap:butt;stroke-linejoin:miter;stroke-opacity:1"
       sodipodi:nodetypes="ccc" />
    <path
       transform="translate(-20.571438,77.076439)"
       id="path3100"
       d="m 229.8097,200.66231 c 2.42432,0.13458 4.34811,-0.73188 6.06092,-2.0203 1.66142,-1.44081 3.05608,-3.20174 3.53553,-6.06092 0.10113,-2.74661 0.84047,-4.02802 -2.0203,-9.59645 -5.51109,-9.69522 -6.64505,-12.7748 -12.12183,-27.77919 -1.29469,-3.37669 -2.44414,-7.09227 -3.03046,-12.12183 -0.11256,-2.55515 0.0222,-5.11029 0.62237,-7.66544 1.44083,-5.53161 5.59852,-9.14994 9.47916,-12.06317 2.23224,-2.42997 0.68899,-11.73493 1.24736,-17.82561 0.21657,-4.82898 -0.0634,-9.415161 -0.74229,-14.468639 -0.25394,-4.462913 -0.8517,-9.269633 -1.51523,-14.142136 -0.51392,-4.504037 -0.94298,-8.617362 -2.37744,-15.333488 -0.98691,-5.012685 -2.38861,-9.535705 -3.92069,-14.050222 l -1.78309,0.08929"
       style="fill:none;stroke:#000000;stroke-width:1px;stroke-linecap:butt;stroke-linejoin:miter;stroke-opacity:1"
       sodipodi:nodetypes="cccccccccccccc" />
    <path
       transform="translate(-20.571438,77.076439)"
       id="path3102"
       d="m 228.03571,200.57143 c 0.71429,0 2.32143,0 2.32143,0 l 0,-0.17857"
       style="fill:none;stroke:#000000;stroke-width:1px;stroke-linecap:butt;stroke-linejoin:miter;stroke-opacity:1" />
    <path
       transform="translate(-20.571438,77.076439)"
       d="m 208.30357,200.48214 -2.94643,1.69643 c -1.85229,0.95238 -2.42252,1.81547 -3.21429,2.76785 -0.79461,1.39881 -1.28858,3.06548 -1.60714,4.46429 -0.20833,1.13258 -0.41666,2.57532 -0.62499,3.92858 l 0,3.21428 c 0.15424,2.48359 -1.617,3.23364 -2.58929,3.66071 0,0.2079 -5,1.28577 -5.71429,1.16072 -1.42118,0.0423 -2.83338,0.12455 -4.76912,0.17857 -4.68604,0.26718 -5.67731,2.5 -5.67731,2.5 0,0 -0.9952,1.80739 -0.625,3.30357 0.35395,1.43052 3.68363,3.90613 3.57143,3.92857 1.1692,0.84593 1.63506,1.58102 1.94356,2.30565 0.38749,1.14092 0.77932,2.27215 0.90863,4.9477 0.12578,2.35445 0.16397,2.87976 -0.45091,4.51968 -0.49368,1.31669 -1.09374,1.80185 -1.66413,2.16113 -1.56718,0.98715 -2.96598,2.00237 -4.48715,3.2087 -2.71301,2.15148 -4.84932,5.43808 -4.82143,5.53571 -0.59161,1.08146 -0.60903,1.98348 -0.53571,2.85715 0.30226,1.28546 0.34513,2.01509 0.35714,2.67857 -0.0426,2.88255 -0.0995,4.76501 0.24357,7.3106 0.54186,3.34447 0.0952,5.37743 -0.42214,7.15368 -0.4112,2.32598 -1.58088,4.39703 -3.31889,5.55739 0.35925,0.31076 -2.03389,2.15072 -6.32397,3.54976 -4.05876,1.3236 -6.89361,0.81268 -10.57664,0.29345 0,0 -7.33856,-0.93676 -10.84821,-1.27668 -2.34862,-0.22748 -1.79375,-0.11355 -8.44516,-0.69263 -1.31503,-0.11448 -5.8517,-0.60861 -8.67975,-0.60596 -4.94879,0.005 -8.01006,1.25732 -9.12881,1.56753 -6.81092,1.88857 -7.45404,3.11116 -8.16964,3.79465 -2.30303,2.23327 -2.57081,2.73239 -4.10715,6.07143 -0.93044,1.93223 -1.72488,3.60905 -2.72321,6.20535 -0.77381,1.72619 -1.86329,3.45238 -2.6371,5.17857 -1.329046,2.71143 -1.870057,5.01231 -2.499999,6.96429 -0.717725,3.04355 -0.735156,3.84353 -0.894715,5.70531 -0.0796,2.10785 -0.266496,4.16206 -0.681789,6.10207 0,1.15745 -1.252136,7.80583 -1.269806,7.90047 -0.283727,1.51957 -1.209017,5.97766 -1.570159,7.88143 -0.507542,2.67553 -0.75247,6.97934 -0.803571,8.21429 -0.06321,1.52754 -0.102509,8.02637 -0.178572,11.33929 -0.03786,1.64924 0.03034,9.36264 0.267857,10.58036 0.333897,1.71186 0.699157,2.46267 0.892857,2.63392 1.549795,1.37016 0.491072,1.78571 0.491072,1.78571 2.324313,0.26209 4.628224,0.1632 6.919645,0.89286 0.0381,-0.0365 5.07103,1.79101 5.84821,1.875 2.63162,0.28442 3.57135,0.17774 5.08929,1.11608 1.40571,1.28452 2.7754,2.38891 4.0625,3.08035 1.15191,1.00792 6.07578,3.52918 6.60714,3.75 1.61763,0.67227 3.23084,1.83036 5.89286,3.92857 0,0 4.36274,3.68955 6.74107,5.89286 3.06296,2.83754 3.49022,3.74771 6.83036,5.71429 3.47722,2.04729 4.12656,2.36746 7.76785,4.82142 3.01721,2.03338 5.28659,3.55676 8.66071,6.60715 2.58477,2.33677 4.53629,3.56547 6.42858,5.98214 2.61646,3.34153 3.39285,5.71428 4.46428,6.78571 1.07143,1.07143 3.30358,4.01786 3.83929,4.91072 0.53572,0.89285 2.23214,2.58929 3.48214,4.01786 1.25,1.42857 1.66125,1.60804 5.35715,5.53571 1.32367,1.40669 3.12499,3.39285 4.91071,5.17857 1.71745,1.71745 3.125,3.30357 4.375,4.73214 1.25,1.42858 4.28571,4.01786 4.28571,4.01786 0,0 2.31123,2.31812 4.73214,4.46429 2.00878,1.7808 2.78099,2.57192 4.91072,4.19643 3.03098,2.31196 3.92703,4.10923 5.89286,5.89285 4.92993,4.473 5.53619,5.34405 6.69642,6.25001 4.62809,3.61378 5.89286,4.01785 5.89286,4.01785 7.58476,4.11124 7.81347,3.34214 11.69643,5.08929 3.73071,1.54159 6.87168,1.37116 13.57143,4.82142 0.94056,-0.0225 8.58919,3.78801 12.05358,7.41072 6.49451,6.79132 12.5,13.48214 12.5,13.48214 5.49689,7.55953 9.29031,14.94048 12.94642,22.58928 2.4034,5.11435 2.74319,5.67239 5.26786,13.57144 0.29466,0.39287 2.13766,8.1954 3.83928,12.05356 0.91466,2.07385 2.09137,4.03716 3.39286,5.89286 2.86205,4.08079 6.55074,7.51924 9.64286,11.42858 2.48148,3.13732 4.70825,6.46901 7.14286,9.64285 3.14585,4.10104 6.16506,8.31927 9.64285,12.14286 2.88926,3.17654 9.28572,8.92857 9.28572,8.92857 0,0 1.45947,0.65822 2.14285,1.07143 3.13827,1.89758 5.77945,4.54906 8.92858,6.42857 3.97759,2.37396 8.07598,4.69849 12.5,6.07143 3.36582,1.04454 10.45431,1.57651 10.45431,1.57651 3.92395,-0.47114 6.23671,-1.52977 7.94752,-2.73087 1.84866,-1.29789 3.51386,-4.77285 3.51386,-4.77285"
       style="fill:none;stroke:#000000;stroke-width:1px;stroke-linecap:butt;stroke-linejoin:miter;stroke-opacity:1"
       sodipodi:nodetypes="ccccccccccscccsssccccccscsssscccccccssssssccsccscssssssssssscsssscccscccaaaaacaaacsc" />
    <path
       transform="translate(-20.571438,77.076439)"
       id="path3106"
       d="m 108.57143,628.42857 c 0,0 -11.07143,-5.71428 -12.500001,-6.78571 C 94.642857,620.57143 89.285714,616.28571 87.5,615.92857 85.714286,615.57143 80,609.85714 80,609.85714 l -9.285714,-6.42857 c 0,0 -6.071429,-5.35714 -7.5,-6.07143 C 61.785714,596.64286 55,592.71429 55,592.71429 L 52.5,587.35714 51.428572,587 l 0.357142,-0.35714"
       style="fill:none;stroke:#000000;stroke-width:1px;stroke-linecap:butt;stroke-linejoin:miter;stroke-opacity:1" />
    <path
       transform="translate(-20.571438,77.076439)"
       id="path3108"
       d="m 168.79859,423.1686 c 0,0 11.9157,17.75997 13.70141,19.90283 1.78571,2.14286 9.31268,13.7437 11.3023,16.36729 1.90552,2.5127 12.87315,14.6058 12.96175,14.6212 6.4358,6.62381 12.87159,13.08199 19.30738,18.29722 0.65767,0.56372 14.26465,11.1224 14.64286,11.42857 7.5,6.07143 15,12.14286 22.5,18.21429 0.55348,0.44806 10.64873,9.42709 13.39286,11.69643 2.74413,2.26934 12.48086,13.38393 12.67856,13.66071 l 5.35715,7.5"
       style="fill:none;stroke:#000000;stroke-width:1px;stroke-linecap:butt;stroke-linejoin:miter;stroke-opacity:1"
       sodipodi:nodetypes="cssccsszsc" />
    <path
       transform="translate(-20.571438,77.076439)"
       id="path3110"
       d="M 93.571429,373.42857 82.857143,374.14286 70,380.57143 62.142857,383.42857 53.571429,387 l -1.428572,3.57143"
       style="fill:none;stroke:#000000;stroke-width:1px;stroke-linecap:butt;stroke-linejoin:miter;stroke-opacity:1" />
    <path
       transform="translate(-20.571438,77.076439)"
       id="path3112"
       d="m 50.714286,360.57143 5,8.57143 17.142857,5 5,1.42857"
       style="fill:none;stroke:#000000;stroke-width:1px;stroke-linecap:butt;stroke-linejoin:miter;stroke-opacity:1" />
    <path
       transform="translate(-20.571438,77.076439)"
       id="path3114"
       d="m 77.410714,375.39286 3.214286,0"
       style="fill:none;stroke:#000000;stroke-width:1px;stroke-linecap:butt;stroke-linejoin:miter;stroke-opacity:1" />
    <path
       transform="translate(-20.571438,77.076439)"
       id="path3116"
       d="M 92.142857,373.51786 C 92.678572,373.42857 95,372.26786 95,372.26786"
       style="fill:none;stroke:#000000;stroke-width:1px;stroke-linecap:butt;stroke-linejoin:miter;stroke-opacity:1" />
    <path
       transform="translate(-20.571438,77.076439)"
       id="path3118"
       d="m 111.25,283.96428 -4.28571,-5.35714 -5.71429,-9.28571"
       style="fill:none;stroke:#000000;stroke-width:1px;stroke-linecap:butt;stroke-linejoin:miter;stroke-opacity:1" />
    <path
       sodipodi:nodetypes="cccccccccccccscsccc"
       transform="translate(-20.571438,77.076439)"
       id="path3120"
       d="m 89.3985,215.30952 -8.838834,-3.53553 c -2.803451,-1.03568 -5.490708,-1.95517 -9.59645,-4.29315 -2.153128,-1.86506 -3.974323,-3.06624 -7.071067,-6.81853 -2.974331,-6.06091 -4.428759,-12.12183 -5.050763,-18.18274 -0.666608,-4.54013 -0.180982,-10.31708 -0.252538,-12.12183 l 0,-9.09138 0.757614,-7.57614 c 1.076953,-2.35669 0.805913,-4.97573 4.293148,-8.83884 3.402947,-3.2637 3.587819,-3.55104 5.177032,-5.3033 l 4.671956,-3.28299 6.313453,-1.76777 c 4.231215,-0.79244 7.158592,-0.68222 10.354064,-0.75761 0.695742,-0.16056 7.239729,1.97795 8.333758,2.52538 1.325632,0.66332 6.113177,4.43295 5.555837,4.64038 0.16289,-0.30365 3.41665,5.07329 3.53554,6.72383 0.0834,1.15733 0.14453,5.35293 0,5.33487 -0.21415,1.15685 -0.53729,3.31095 -1.23112,4.38785 -0.73097,1.1687 -1.18027,1.84449 -1.57837,2.43068"
       style="fill:none;stroke:#000000;stroke-width:1px;stroke-linecap:butt;stroke-linejoin:miter;stroke-opacity:1" />
    <path
       sodipodi:nodetypes="cccccccc"
       transform="translate(-20.571438,77.076439)"
       id="path3122"
       d="m 88.13581,162.52905 3.062025,-4.23001 c 1.704632,-1.93613 2.884941,-2.81745 4.419417,-5.93465 0.449094,-1.08423 1.010387,-1.61779 0.726047,-2.52537 -0.08124,-0.59021 -0.354362,-1.88583 -1.199556,-2.14658 -1.516743,-0.59231 -2.939272,-0.7875 -3.440832,-0.63135 -1.309618,0.0566 -1.8464,0.28851 -3.314563,0.82075 -1.065477,0.62213 -1.706523,1.31499 -2.272843,2.02031"
       style="fill:none;stroke:#000000;stroke-width:1px;stroke-linecap:butt;stroke-linejoin:miter;stroke-opacity:1" />
    <path
       id="path3124"
       d="m 68.844597,248.15413 1.066172,4.29447 1.589196,4.17716 c -0.214265,0.39529 1.490135,2.66485 1.989667,3.59549 l 1.975662,2.54334"
       style="fill:none;stroke:#000000;stroke-width:1px;stroke-linecap:butt;stroke-linejoin:miter;stroke-opacity:1" />
    <path
       sodipodi:nodetypes="ccccc"
       transform="translate(-20.571438,77.076439)"
       id="path3126"
       d="m 73.741136,204.19785 c -1.440795,-1.01392 -3.790971,-2.93722 -5.897663,-4.61703 -1.622262,-1.91496 -3.056406,-3.83628 -3.969271,-6.22417 -1.738155,-4.15667 -1.3748,-4.50933 -2.285534,-11.82333 -0.232343,-2.41914 0.467357,-8.15195 0.505076,-9.58639"
       style="fill:none;stroke:#000000;stroke-width:1px;stroke-linecap:butt;stroke-linejoin:miter;stroke-opacity:1" />
    <path
       transform="translate(-20.571438,77.076439)"
       id="path3128"
       d="m 203.54574,159.24606 6.56599,-5.05077 4.04061,-2.52538 2.0203,-2.0203 0,0.50507"
       style="fill:none;stroke:#000000;stroke-width:1px;stroke-linecap:butt;stroke-linejoin:miter;stroke-opacity:1" />
    <path
       transform="translate(-20.571438,77.076439)"
       id="path3130"
       d="m 130.56222,16.309472 c 0,0 -7.32361,0.505076 -8.5863,0.505076 -1.26269,0 -10.10153,-0.505076 -12.12183,-0.252538 -2.02031,0.252538 -10.354064,0.252538 -12.374369,0.252538 -2.020305,0 -8.586297,-1.26269 -10.85914,-1.767767 -2.272843,-0.505076 -11.869293,-7.0710676 -14.394674,-7.0710676 -2.525381,0 -11.869292,-3.2829958 -13.384521,-5.3033009 -1.515229,-2.02030506 -9.091373,-5.555839 -9.091373,-5.555839 l 1.262691,1.5152288"
       style="fill:none;stroke:#000000;stroke-width:1px;stroke-linecap:butt;stroke-linejoin:miter;stroke-opacity:1" />
    <path
       transform="translate(-20.571438,77.076439)"
       id="path3132"
       d="m 202.53559,32.724451 c 0,0 -21.21321,2.272843 -22.22336,2.777919 -1.01015,0.505077 -12.37437,1.262691 -15.40483,1.262691 -3.03045,0 -17.67767,0 -19.1929,0.252538 -1.51522,0.252538 -42.17386,4.293148 -45.961936,4.293148 -3.788072,0 -20.203051,1.767767 -23.486047,1.515229 -3.282996,-0.252538 -17.930207,-0.757614 -19.445436,-0.757614 -1.515229,0 -5.808377,-1.010153 -5.808377,-1.010153 l 1.26269,0.252538"
       style="fill:none;stroke:#000000;stroke-width:1px;stroke-linecap:butt;stroke-linejoin:miter;stroke-opacity:1" />
    <path
       transform="translate(-20.571438,77.076439)"
       id="path3134"
       d="m 191.67645,40.805671 c 0,0 -4.54569,5.050763 -6.06092,6.060915 -1.51523,1.010153 -15.9099,9.59645 -15.9099,9.59645 0,0 -6.56599,0.252538 -9.34391,0.505076 -2.77792,0.252538 -15.65737,5.808377 -17.93021,5.808377 -2.27284,0 -22.72843,3.788072 -22.72843,3.788072 0,0 -6.81853,0.505076 -8.08122,0.505076 -1.26269,0 -14.899754,0.757615 -16.162444,0.505077 -1.262691,-0.252538 -17.172594,1.010152 -17.172594,1.010152 L 67.175144,67.827252 c 0,0 -11.111678,-0.252538 -12.374368,-0.252538 -1.262691,0 -5.555839,0.252538 -5.555839,0.252538 l 2.525381,-0.252538"
       style="fill:none;stroke:#000000;stroke-width:1px;stroke-linecap:butt;stroke-linejoin:miter;stroke-opacity:1" />
    <path
       transform="translate(-20.571438,77.076439)"
       id="path3136"
       d="m 205.06097,41.815824 -5.3033,0.252538 -4.79823,6.565991 c 0,0 -6.06091,6.060916 -6.31345,7.576144 -0.25254,1.515229 -3.53554,8.333759 -4.79823,9.59645 -1.26269,1.26269 -10.10152,4.798224 -12.12183,6.313453 -2.0203,1.515229 -16.16244,6.81853 -17.17259,6.81853 -1.01015,0 -22.72843,1.515229 -25.25381,1.515229 -2.52539,0 -19.1929,0.505076 -22.22336,0.505076 -3.03046,0 -10.606602,-0.757615 -14.647212,-0.757615 -4.04061,0 -12.879445,0 -18.435284,0 -5.555839,0 -20.203051,-0.757614 -20.203051,-0.757614 l -1.515229,0"
       style="fill:none;stroke:#000000;stroke-width:1px;stroke-linecap:butt;stroke-linejoin:miter;stroke-opacity:1" />
    <path
       transform="translate(-20.571438,77.076439)"
       id="path3138"
       d="m 190.41375,21.612773 c 0,0 -4.29314,2.525381 -9.09137,2.525381 -4.79822,0 -4.79822,0.252538 -12.87944,0.252538 -8.08122,0 -23.73859,0.505077 -23.73859,0.505077 0,0 -20.70812,2.272843 -21.71828,2.020305 -1.01015,-0.252538 -9.09137,-0.757615 -12.12183,-0.757615 -3.03046,0 -19.192896,0 -20.708125,0 -1.515229,0 -22.980971,0 -22.980971,0 l -9.848987,-1.767767 -6.060915,0.252538 0,0"
       style="fill:none;stroke:#000000;stroke-width:1px;stroke-linecap:butt;stroke-linejoin:miter;stroke-opacity:1" />
    <path
       transform="translate(-20.571438,77.076439)"
       id="path3140"
       d="M 184.1003,14.289167 164.9074,4.6927176 c 0,0 -9.34391,-8.5862966 -10.85914,-8.8388348 -1.51523,-0.2525381 -7.3236,-4.0406101 -9.59645,-4.7982245 -2.27284,-0.7576145 -15.9099,-4.5456863 -17.67767,-4.5456863 -1.76776,0 -20.20305,-6.565992 -20.20305,-6.565992 l -13.384518,-2.272843 -14.142135,-3.282996 -17.67767,-1.26269 c 0,0 -4.545686,-2.77792 -7.071068,-2.525382 -2.525381,0.252538 -3.030457,-0.252538 -3.030457,-0.252538"
       style="fill:none;stroke:#000000;stroke-width:1px;stroke-linecap:butt;stroke-linejoin:miter;stroke-opacity:1" />
    <path
       transform="translate(-20.571438,77.076439)"
       id="path3142"
       d="m 170.2107,-14.50018 c 0,0 -14.14213,-10.606602 -17.17259,-13.131983 -3.03046,-2.525382 -19.69797,-18.687823 -19.69797,-18.687823 l -7.57615,-8.08122"
       style="fill:none;stroke:#000000;stroke-width:1px;stroke-linecap:butt;stroke-linejoin:miter;stroke-opacity:1" />
    <path
       transform="translate(-20.571438,77.076439)"
       id="path3144"
       d="m 182.58507,246.11918 c -1.1259,-1.59941 -0.19446,-2.13065 -3.53553,-5.58741 -0.7087,-1.00835 -0.93271,-0.77788 -2.02031,-3.7565 -0.2354,-1.38468 -0.35314,-2.73994 -0.25253,-4.04062 0.15045,-0.69078 0.0395,-1.25086 0.97858,-2.33597 0.56906,-0.61619 1.11885,-1.0976 1.76777,-2.27285 l 1.13642,-2.20971"
       style="fill:none;stroke:#000000;stroke-width:1px;stroke-linecap:butt;stroke-linejoin:miter;stroke-opacity:1"
       sodipodi:nodetypes="ccccccc" />
    <path
       transform="translate(-20.571438,77.076439)"
       id="path3146"
       d="m 347.99755,612.36261 c 0,0 3.42477,0.8125 5.1139,1.01016 1.68913,0.19766 3.01931,0.0792 4.98763,0.18939 1.96832,0.11022 4.85909,0.44516 6.81853,0.50508 1.95944,0.0599 3.13261,0.0552 4.92449,-0.0631 1.79188,-0.11826 4.06909,-0.0791 5.80838,-0.69448 1.73929,-0.61539 3.17534,-1.72438 4.41942,-2.77792 1.24408,-1.05354 1.58034,-2.10309 3.03045,-3.40927 1.45011,-1.30618 3.91646,-2.6979 5.80838,-4.16688 1.89192,-1.46898 3.95613,-3.24112 5.42957,-4.60882 1.47343,-1.36769 4.41057,-4.64343 6.62912,-6.62913 2.21854,-1.9857 2.45189,-1.64489 6.62913,-5.30329 4.17724,-3.6584 12.69954,-12.9199 17.93021,-17.1726 5.23067,-4.2527 8.22761,-5.1449 12.87945,-8.83883 4.65184,-3.69393 9.32364,-8.54334 14.77348,-13.51079 5.44984,-4.96745 13.53836,-12.26193 17.9302,-16.28871 4.39184,-4.02678 5.50501,-4.90915 8.46003,-7.82869 2.95502,-2.91954 6.73758,-6.72372 9.21764,-9.72271 2.48006,-2.99899 4.57449,-5.80984 5.80838,-8.08122 1.23389,-2.27138 1.2584,-2.90982 2.02031,-5.17704 0.76191,-2.26722 1.30561,-6.43539 2.39911,-8.46002 1.0935,-2.02463 1.55589,-2.24176 3.28299,-3.78808 1.7271,-1.54632 4.92458,-3.36688 7.32361,-5.05076 2.39903,-1.68388 4.83675,-3.53924 7.07107,-5.05076 2.23432,-1.51152 3.64909,-3.30101 6.31345,-4.04061 2.66436,-0.7396 6.17959,-0.0508 9.09137,0.25254 2.91178,0.30337 5.51754,0.35408 8.33376,1.51523 2.81622,1.16115 6.04851,3.76729 8.08122,5.55584 2.03271,1.78855 2.8123,2.99187 4.29315,4.79822 1.48085,1.80635 3.199,3.9919 4.54569,6.06092 1.34669,2.06902 2.4699,3.9958 3.53553,6.31345 1.06563,2.31765 2.47175,4.89129 2.77792,7.57614 0.30617,2.68485 -0.34134,5.36659 -1.01015,8.08122 -0.66881,2.71463 -1.75072,6.02604 -3.03046,8.08122 -1.27974,2.05518 -3.18532,2.61631 -4.04061,4.29315 -0.85529,1.67684 -0.33283,3.58645 -1.01015,5.3033 -0.67732,1.71685 -1.97785,3.11485 -3.03046,4.79823 -1.05261,1.68338 -1.88991,4.03111 -3.283,5.3033 -1.39309,1.27219 -2.96329,0.91528 -4.54568,2.27284 -1.58239,1.35756 -2.37085,3.48196 -4.29315,6.06092 -1.9223,2.57896 -3.87909,4.50898 -7.32361,9.34391 -3.44452,4.83493 -9.22563,14.17884 -12.87944,19.95051 -3.65381,5.77167 -5.47796,9.81599 -9.09137,14.64721 -3.61341,4.83122 -9.06787,9.52065 -12.62691,14.14214 -3.55904,4.62149 -5.91462,9.74654 -8.83884,13.38452 -2.92422,3.63798 -8.68365,6.52744 -8.33375,8.5863 0.3499,2.05886 0.50507,0.25253 0.50507,0.25253"
       style="fill:none;stroke:#000000;stroke-width:1px;stroke-linecap:butt;stroke-linejoin:miter;stroke-opacity:1"
       sodipodi:nodetypes="czzzzzzzzzzzzzzzzzzzzzzzzzzzzzzzzzzzzzzzzzzzzzz" />
    <path
       transform="translate(-20.571438,77.076439)"
       id="path3148"
       d="m 527.29963,471.63573 c 0,0 4.11706,-4.23657 7.57614,-7.07107 3.45908,-2.8345 8.96251,-6.56759 13.38452,-9.59644 4.42201,-3.02885 9.00129,-6.02568 13.13199,-8.5863 4.1307,-2.56062 7.24471,-4.44589 11.61675,-6.81853 4.37204,-2.37264 10.57787,-5.56307 14.64721,-7.32361 4.06934,-1.76054 6.18341,-1.79969 9.59645,-3.53553 3.41304,-1.73584 7.94469,-5.36053 10.6066,-7.07107 2.66191,-1.71054 4.29315,-3.28299 5.30331,-3.28299 1.01015,0 5.0443,1.05844 6.81853,2.77791 1.77423,1.71947 2.52363,5.22431 3.03045,6.81853 0.50682,1.59422 0.066,1.5965 0.50508,2.52539 0.43908,0.92889 1.64072,1.80183 2.27284,2.77792 0.63212,0.97609 1.56074,1.5424 1.51523,3.03045 -0.0455,1.48805 -1.64801,3.48479 -2.77792,4.79823 -1.12991,1.31344 -2.27051,2.49813 -3.78807,3.03046 -1.51756,0.53233 -3.21195,-0.59601 -4.79822,0 -1.58627,0.59601 -2.81351,2.22466 -4.04062,3.53553 -1.22711,1.31087 -2.55875,3.03937 -3.28299,4.29315 -0.72424,1.25378 -0.95613,1.67468 -1.26269,3.03046 -0.30656,1.35578 0,4.04061 -0.25254,5.05076 -0.25254,1.01015 -1.3101,2.09427 -0.50508,3.53553 0.80502,1.44126 3.82973,1.72486 5.80838,2.52538 1.97865,0.80052 3.95628,1.47351 6.06092,2.27285 2.10464,0.79934 4.70283,2.4114 6.56599,2.52538 1.86316,0.11398 3.01334,-0.38798 4.04061,-1.01015 1.02727,-0.62217 2.23074,-1.2795 2.0203,-2.27285 -0.21044,-0.99335 -1.55999,-0.50288 -2.77792,-1.26269 -1.21793,-0.75981 -4.29653,-1.41219 -4.29314,-3.53553 0.003,-2.12334 4.03701,-6.27023 5.55583,-4.54569 1.51882,1.72454 -2.98897,4.22956 -4.79822,4.54569 -1.80925,0.31613 -2.69024,-0.68892 -4.04061,-1.76777 -1.35037,-1.07885 -2.23222,-3.19462 -3.53553,-4.79822 -1.30331,-1.6036 -3.86332,-3.17858 -4.29315,-4.79823 -0.42983,-1.61965 -0.47723,-2.17072 0.75761,-3.53553 1.23484,-1.36481 4.74668,-1.73097 7.07107,-2.27285 2.32439,-0.54188 4.47366,-1.51268 6.81853,-1.01015 2.34487,0.50253 4.43132,2.33843 6.31345,4.04061 1.88213,1.70218 2.91138,3.98332 4.79823,6.06092 1.88685,2.0776 4.58728,4.41992 6.56599,6.31345 1.97871,1.89353 3.77999,3.9164 5.3033,5.05076 1.52331,1.13436 2.49797,0.73686 3.53553,2.02031 1.03756,1.28345 1.35651,3.39949 1.76777,5.55584 0.41126,2.15635 1.42751,5.12134 0.50508,7.3236 -0.92243,2.20226 -3.79491,3.10301 -5.3033,4.54569 -1.50839,1.44268 -2.31686,2.72247 -3.78808,4.04061 -1.47122,1.31814 -3.78461,2.12302 -5.05076,3.78807 -1.26615,1.66505 -1.58293,4.25648 -2.27284,5.80838 -0.68991,1.5519 -0.68,2.54425 -1.76777,3.53553 -1.08777,0.99128 -3.31058,1.41879 -4.54569,1.76777 -1.23511,0.34898 -2.17189,-0.15159 -2.77791,0.50508 -0.60602,0.65667 -0.15301,1.13697 -0.25254,2.52538 -0.0995,1.38841 -0.16819,3.95643 -0.25254,5.80837 -0.0843,1.85194 0.59446,3.75971 -0.25254,5.30331 -0.847,1.5436 -2.15384,2.0677 -4.29315,3.03045 -2.13931,0.96275 -5.85992,1.79553 -8.58629,2.02031 -2.72637,0.22478 -5.38733,-0.28315 -7.57615,-0.50508 -2.18882,-0.22193 -2.56344,-0.58517 -5.55584,-0.75761 -2.9924,-0.17244 -8.88076,0.11419 -12.37437,0.25254 -3.49361,0.13835 -5.26099,0.37037 -8.58629,0.50507 -3.3253,0.1347 -7.53198,0.29323 -11.36422,0.25254 -3.83224,-0.0407 -9.39077,-0.2982 -11.61675,-0.50508 -2.22598,-0.20688 -1.76777,-0.25253 -1.76777,-0.25253"
       style="fill:none;stroke:#000000;stroke-width:1px;stroke-linecap:butt;stroke-linejoin:miter;stroke-opacity:1"
       sodipodi:nodetypes="czzzzzzzzzzzzzzzzzzzzzzzzzzzzzzzzzzzzzzzzzzzzzzzzzzzzzzzzzzzzzz" />
    <path
       transform="translate(-20.571438,77.076439)"
       id="path3150"
       d="m 629.32504,445.37177 43.18402,-9.34392 3.28299,-2.0203 -43.94163,-18.68782 -59.599,7.07107 15.9099,8.58629"
       style="fill:none;stroke:#000000;stroke-width:1px;stroke-linecap:butt;stroke-linejoin:miter;stroke-opacity:1" />
    <path
       transform="translate(-20.571438,77.076439)"
       id="path3152"
       d="m 607.35422,453.70552 3.78807,0 6.06092,5.80838 7.57614,7.82868 2.52538,2.27285"
       style="fill:none;stroke:#000000;stroke-width:1px;stroke-linecap:butt;stroke-linejoin:miter;stroke-opacity:1" />
    <path
       transform="translate(-20.571438,77.076439)"
       id="path3154"
       d="m 652.55854,466.58497 c 0,0 -1.00859,-2.82798 -0.25253,-4.79823 0.75606,-1.97025 4.17721,-3.35066 5.55584,-5.55583 1.37863,-2.20517 2.18679,-5.30304 2.52538,-7.32361 0.33859,-2.02057 -0.96934,-2.69565 0,-4.54569 0.96934,-1.85004 6.56599,-4.54568 6.56599,-4.54568"
       style="fill:none;stroke:#000000;stroke-width:1px;stroke-linecap:butt;stroke-linejoin:miter;stroke-opacity:1"
       sodipodi:nodetypes="czzzzz" />
    <path
       transform="translate(-20.571438,77.076439)"
       id="path3156"
       d="m 640.94179,455.22075 c 0,0 7.11328,-3.19856 10.10153,-4.54568 2.98825,-1.34712 5.96332,-2.19811 7.82868,-3.53554 1.86536,-1.33743 2.1831,-2.6398 3.53553,-3.78807 1.35243,-1.14827 4.54569,-3.03046 4.54569,-3.03046"
       style="fill:none;stroke:#000000;stroke-width:1px;stroke-linecap:butt;stroke-linejoin:miter;stroke-opacity:1"
       sodipodi:nodetypes="czzzz" />
    <path
       transform="translate(-20.571438,77.076439)"
       id="path3158"
       d="m 652.05347,461.53421 -3.53554,1.01015"
       style="fill:none;stroke:#000000;stroke-width:1px;stroke-linecap:butt;stroke-linejoin:miter;stroke-opacity:1"
       sodipodi:nodetypes="cz" />
    <path
       transform="translate(-20.571438,77.076439)"
       id="path3160"
       d="m 654.83139,422.89587 c 0,0 -0.6419,-2.89189 0,-4.04061 0.6419,-1.14872 1.54101,-0.86413 3.28299,-2.0203 1.74198,-1.15617 5.48449,-2.61212 7.07107,-5.05077 1.58658,-2.43865 2.34822,-6.36434 1.76777,-8.58629 -0.58045,-2.22195 -2.2063,-2.98363 -3.283,-3.78807 -1.0767,-0.80444 -1.21783,-1.05241 -2.77792,-1.2627 -1.56009,-0.21029 -4.7164,0.6985 -6.31345,1.01016 -1.59705,0.31166 -2.02074,0.50077 -3.283,0.75761 -1.26226,0.25684 -3.28298,-0.50507 -4.29314,0.75762 -1.01015,1.26269 -1.54693,1.94742 -2.52539,2.27284 -0.97846,0.32542 -1.72231,-0.24233 -2.77791,-0.25254 -1.0556,-0.0102 -2.32461,-0.24067 -3.53554,0.25254 -1.21093,0.49321 -1.76776,1.76777 -3.28299,2.77792 -1.51522,1.01015 -2.28443,2.97355 -3.78808,3.78807 -1.50365,0.81452 -3.49337,0.55507 -4.79822,1.01015 -1.30485,0.45508 -1.51523,1.51523 -3.03046,1.51523 -1.51523,0 -4.79822,0.50508 -6.56599,0.25254 -1.76777,-0.25254 -3.02521,-0.0428 -4.54569,-0.25254 -1.52048,-0.20975 -2.64027,-0.83662 -4.54568,-1.01015 -1.90541,-0.17353 -4.79658,-0.3069 -6.81853,0.25254 -2.02195,0.55944 -3.32304,1.93508 -5.05077,2.77792 -1.72773,0.84284 -3.8015,1.18147 -5.3033,2.27284 -1.5018,1.09137 -4.31938,3.30727 -3.53553,4.04061 0.78385,0.73334 0.75761,-0.75761 0.75761,-0.75761"
       style="fill:none;stroke:#000000;stroke-width:1px;stroke-linecap:butt;stroke-linejoin:miter;stroke-opacity:1"
       sodipodi:nodetypes="czzzzzzzzzzzzzzzzzzzzzzzz" />
    <path
       transform="translate(-20.571438,77.076439)"
       id="path3162"
       d="m 578.81741,427.18902 c 0,0 -5.08538,2.03529 -6.31345,3.283 -1.22807,1.24771 -1.1843,1.79246 -1.51523,3.03045 -0.33093,1.23799 -0.14386,3.32646 -0.25254,4.29315 -0.10868,0.96669 -0.25254,1.51523 -0.25254,1.51523"
       style="fill:none;stroke:#000000;stroke-width:1px;stroke-linecap:butt;stroke-linejoin:miter;stroke-opacity:1"
       sodipodi:nodetypes="czzzz" />
    <path
       transform="translate(-20.571438,77.076439)"
       id="path3164"
       d="m 629.0725,442.84638 43.94163,-7.07106"
       style="fill:none;stroke:#000000;stroke-width:1px;stroke-linecap:butt;stroke-linejoin:miter;stroke-opacity:1" />
    <path
       transform="translate(-20.571438,77.076439)"
       id="path3166"
       d="m 625.7895,444.36161 8.83884,-2.52538"
       style="fill:none;stroke:#000000;stroke-width:1px;stroke-linecap:butt;stroke-linejoin:miter;stroke-opacity:1" />
    <path
       transform="translate(-20.571438,77.076439)"
       id="path3168"
       d="m 495.47982,612.80455 54.80078,0 185.36299,-0.50508"
       style="fill:none;stroke:#000000;stroke-width:1px;stroke-linecap:butt;stroke-linejoin:miter;stroke-opacity:1"
       sodipodi:nodetypes="ccc" />
    <path
       transform="translate(-20.571438,77.076439)"
       id="path3170"
       d="M 506.08643,618.36039 735.39105,617.0977"
       style="fill:none;stroke:#000000;stroke-width:1px;stroke-linecap:butt;stroke-linejoin:miter;stroke-opacity:1"
       sodipodi:nodetypes="cc" />
    <path
       transform="translate(-20.571438,77.076439)"
       id="path3172"
       d="m 498.76282,615.32993 c 0,0 3.34931,1.10046 5.05076,2.02031 1.70145,0.91985 3.90816,2.36666 5.05077,3.53553 1.14261,1.16887 0.89821,2.01891 2.0203,3.03046 1.12209,1.01155 3.54179,1.79662 4.79822,2.52538 1.25643,0.72876 2.77792,1.76777 2.77792,1.76777"
       style="fill:none;stroke:#000000;stroke-width:1px;stroke-linecap:butt;stroke-linejoin:miter;stroke-opacity:1"
       sodipodi:nodetypes="czzzzz" />
    <path
       transform="translate(-20.571438,77.076439)"
       id="path3174"
       d="m 485.88337,628.20938 c 0,0 1.49376,-0.84939 2.52539,-1.01016 1.03163,-0.16077 2.55396,-0.0395 3.53553,0.25254 0.98157,0.29206 2.27284,1.26269 2.27284,1.26269"
       style="fill:none;stroke:#000000;stroke-width:1px;stroke-linecap:butt;stroke-linejoin:miter;stroke-opacity:1"
       sodipodi:nodetypes="czzz" />
    <path
       transform="translate(-20.571438,77.076439)"
       id="path3176"
       d="m 493.9646,621.64339 c 0,0 -1.04651,3.6442 -0.75762,4.54568 0.28889,0.90148 0.75762,0.75762 0.75762,0.75762"
       style="fill:none;stroke:#000000;stroke-width:1px;stroke-linecap:butt;stroke-linejoin:miter;stroke-opacity:1"
       sodipodi:nodetypes="czz" />
    <path
       transform="translate(-20.571438,77.076439)"
       id="path3178"
       d="m 735.24312,612.15154 c 0,0 26.66444,0.14793 28.43221,0.14793 1.76777,0 25.88455,-0.35396 36.61802,-0.75761 10.73347,-0.40365 18.55915,-0.79893 27.7792,-1.51523 9.22005,-0.7163 18.01114,-1.60705 27.52666,-2.77792 9.51552,-1.17087 20.62499,-2.89383 29.54696,-4.29315 8.92197,-1.39932 15.85909,-2.32165 23.99112,-4.04061 8.13203,-1.71896 17.17412,-4.28531 24.74874,-6.31345 7.57462,-2.02814 15.55957,-4.50805 20.70813,-5.80838 5.14856,-1.30033 4.26384,-0.72496 10.10152,-2.27284 5.83768,-1.54788 16.07155,-4.68325 24.74874,-7.57614 8.67719,-2.89289 18.47738,-6.4767 27.27408,-9.84899 8.7967,-3.37229 18.1475,-7.22064 25.5064,-10.35407 7.3589,-3.13343 13.1387,-5.57187 18.6878,-8.33375 5.5491,-2.76188 14.6472,-8.08122 14.6472,-8.08122"
       style="fill:none;stroke:#000000;stroke-width:1px;stroke-linecap:butt;stroke-linejoin:miter;stroke-opacity:1"
       sodipodi:nodetypes="czzzzzzzzzzzzzz" />
    <path
       transform="translate(-20.571438,77.076439)"
       id="path3180"
       d="m 735.56962,617.05437 26.33794,-0.46175 28.03173,-0.25254 28.03173,-1.26269 25.75889,-2.27284 29.7995,-3.78807 29.04189,-5.55584 19.44544,-3.283 23.48604,-6.06091 26.51651,-7.57615 23.23351,-7.82868 28.2843,-10.10152 26.769,-10.60661 14.1421,-5.3033 11.6168,-6.31345"
       style="fill:none;stroke:#000000;stroke-width:1px;stroke-linecap:butt;stroke-linejoin:miter;stroke-opacity:1"
       sodipodi:nodetypes="ccccccccccccccc" />
    <path
       transform="translate(-20.571438,77.076439)"
       id="path3182"
       d="m 205.06097,142.83108 11.61675,-7.57615 8.08122,-8.08122 5.05076,-1.51522"
       style="fill:none;stroke:#000000;stroke-width:1px;stroke-linecap:butt;stroke-linejoin:miter;stroke-opacity:1" />
    <path
       transform="translate(-20.571438,77.076439)"
       id="path3184"
       d="m 219.96072,129.6991 c 0,-1.2627 6.06091,-9.84899 6.06091,-9.84899 l 3.53554,-1.26269 3.53553,0"
       style="fill:none;stroke:#000000;stroke-width:1px;stroke-linecap:butt;stroke-linejoin:miter;stroke-opacity:1" />
    <path
       sodipodi:nodetypes="cccccc"
       transform="translate(-20.571438,77.076439)"
       id="path3186"
       d="M 208.09142,22.370388 179.80715,-4.9037308 147.48227,-24.096629 120.20815,-34.198155 66.670068,-49.350443 53.538085,-52.3809"
       style="fill:none;stroke:#000000;stroke-width:1px;stroke-linecap:butt;stroke-linejoin:miter;stroke-opacity:1" />
    <path
       style="fill:none;stroke:#000000;stroke-width:1px;stroke-linecap:butt;stroke-linejoin:miter;stroke-opacity:1"
       d="m 577.93353,523.91113 0.25253,5.05076 -0.25253,5.42957 0.25253,3.40926 0.37881,4.16688 1.01015,3.40927 c 0,0 2.27285,4.67195 2.27285,5.3033 0,0.63134 2.90419,3.78807 3.03045,4.29315 0.12627,0.50507 3.03046,3.15672 3.03046,3.15672 l 4.04061,2.77792 5.55584,1.76777 c 0,0 9.47018,-0.12627 10.10153,-0.12627 0.63134,0 11.11168,-1.6415 11.11168,-1.6415 l 6.43972,-4.92449 9.84898,-8.9651 10.73288,-9.09138 7.44987,-6.56599 4.41942,-5.05076 5.93464,-5.80838 4.67196,-4.29315 -0.12627,-0.12627"
       id="path3201"
       transform="translate(-20.571438,77.076439)" />
    <path
       style="fill:none;stroke:#000000;stroke-width:1px;stroke-linecap:butt;stroke-linejoin:miter;stroke-opacity:1"
       d="m 652.81108,533.25504 2.52538,2.27284 8.08123,4.79823 2.65165,2.90418 8.46002,3.53554 3.53554,2.27284 8.71256,-0.37881 4.41942,-4.04061 4.16688,-7.70241 0.25254,-5.3033 c 0,0 -3.53554,-5.05076 -4.04061,-5.3033 -0.50508,-0.25254 -7.07107,-3.78807 -7.07107,-3.78807 l -14.89975,-7.95495 -8.71257,-5.55584 -9.84898,-6.31346 -7.19734,-4.79822 -2.39911,-2.14658"
       id="path3203"
       transform="translate(-20.571438,77.076439)" />
    <path
       style="fill:none;stroke:#000000;stroke-width:1px;stroke-linecap:butt;stroke-linejoin:miter;stroke-opacity:1"
       d="m 688.79777,548.65986 6.18718,-7.19733 3.03046,-6.06092 1.76777,-8.5863 2.27284,-6.43972 3.91434,-5.80837 6.69226,-5.80838 6.56599,-4.16688"
       id="path3205"
       transform="translate(-20.571438,77.076439)" />
    <path
       style="fill:none;stroke:#000000;stroke-width:1px;stroke-linecap:butt;stroke-linejoin:miter;stroke-opacity:1"
       d="m 698.89929,534.13892 4.41942,-5.17703 4.29315,-4.79823 3.53553,-5.17703 2.77792,-4.92449 3.40927,-5.42957 2.0203,-2.77792"
       id="path3207"
       transform="translate(-20.571438,77.076439)" />
    <path
       style="fill:none;stroke:#000000;stroke-width:1px;stroke-linecap:butt;stroke-linejoin:miter;stroke-opacity:1"
       d="m 678.94878,501.05643 10.98541,-6.06092 6.56599,-4.04061 4.67196,-2.52538"
       id="path3209"
       transform="translate(-20.571438,77.076439)" />
    <path
       style="fill:none;stroke:#000000;stroke-width:1px;stroke-linecap:butt;stroke-linejoin:miter;stroke-opacity:1"
       d="m 665.05918,481.48472 4.54569,-0.25254 4.29315,-0.25254 c 0,0 5.80838,0.37881 6.31345,0.50508 0.50508,0.12627 4.79823,1.01015 5.55584,1.13642 0.75761,0.12627 5.17703,1.6415 5.80838,1.89404 0.63134,0.25254 5.93464,2.65165 5.93464,2.65165 l 3.78808,1.51523 4.92449,1.26269 c 0,0 6.9448,3.03045 7.57614,3.28299 0.63135,0.25254 4.54569,2.39912 4.54569,2.39912 l 2.27284,1.13642 0.25254,-0.12627 -0.12627,0 -0.12627,0.12627"
       id="path3211"
       transform="translate(-20.571438,77.076439)" />
    <path
       style="fill:none;stroke:#000000;stroke-width:1px;stroke-linecap:butt;stroke-linejoin:miter;stroke-opacity:1"
       d="m 698.01541,367.33748 3.283,6.31346 c 0,0 2.77792,3.6618 2.65165,4.16687 -0.12627,0.50508 1.89403,7.70242 1.89403,7.70242 0,0 2.14658,4.41941 2.14658,5.05076 0,0.63135 0.75761,4.16688 0.75761,4.16688 l 0.37881,6.56599 1.26269,9.09137 c 0,0 0.88388,7.32361 0.88388,7.95496 0,0.63134 0.63135,7.19733 0.63135,7.70241 0,0.50507 1.13642,9.72272 1.13642,9.72272 l 0.75761,10.73287 c 0,0 0.75762,8.46003 0.75762,8.9651 0,0.50508 1.38896,11.74302 1.38896,11.74302 0,0 0.63134,6.06092 0.63134,6.69227 0,0.63134 1.13642,5.42957 1.13642,5.42957 l 1.01016,9.84898 1.01015,4.16688 1.01015,3.53554"
       id="path3213"
       transform="translate(-20.571438,77.076439)" />
    <path
       style="fill:none;stroke:#000000;stroke-width:1px;stroke-linecap:butt;stroke-linejoin:miter;stroke-opacity:1"
       d="m 719.98623,497.14208 1.01015,7.70242 c 0,0 2.90419,11.61675 2.90419,12.12183 0,0.50507 2.0203,8.46003 2.0203,8.46003 0,0 3.78808,16.28871 3.91435,17.17259 0.12626,0.88388 2.52538,8.20749 2.52538,8.20749 0,0 1.38896,7.95495 1.51523,8.71256 0.12626,0.75762 1.13642,5.68211 1.13642,6.18719 0,0.50507 0.63134,6.31345 0.50507,6.81853 -0.12627,0.50507 1.6415,18.18274 1.6415,18.18274 0,0 0.75762,3.91434 1.13642,4.41942 0.37881,0.50508 1.01016,8.20749 1.01016,8.20749 l 0.75761,4.79823 0.37881,2.77791 0,0.75762"
       id="path3215"
       transform="translate(-20.571438,77.076439)" />
    <path
       style="fill:none;stroke:#000000;stroke-width:1px;stroke-linecap:butt;stroke-linejoin:miter;stroke-opacity:1"
       d="m 662.91261,398.14713 c 0,0 1.3694,-3.31208 1.76777,-5.05076 0.66229,-2.89055 -0.0779,-6.08018 1.01015,-8.83883 1.03776,-2.63122 4.16431,-4.13255 5.05076,-6.81853 0.76508,-2.31822 -0.41495,-4.91793 0,-7.32361 0.68338,-3.96188 2.129,-7.82736 4.04061,-11.36421 2.71378,-5.02101 6.39624,-9.52479 10.35406,-13.63706 2.1152,-2.19774 5.28995,-3.33214 7.07107,-5.80838 1.1046,-1.5357 0.63506,-4.01504 2.02031,-5.3033 1.28714,-1.19702 3.46775,-0.75127 5.05076,-1.51523 2.12411,-1.02509 3.80509,-2.79583 5.80838,-4.04061 2.36816,-1.4715 4.9138,-2.63833 7.3236,-4.04061 2.64542,-1.53939 4.98855,-3.65739 7.82869,-4.79823 3.67713,-1.47704 7.87939,-1.20815 11.61675,-2.52538 1.06516,-0.37542 2.06975,-2.10898 3.03046,-1.51523 0.14322,0.0885 0.16822,0.49827 0,0.50508 -3.1223,0.12637 0.0551,-6.32659 -0.75762,-9.34391 -1.06739,-3.96289 -3.44304,-7.45337 -5.3033,-11.11168 -1.60481,-3.15595 -3.04008,-6.4297 -5.05076,-9.34391 -1.38966,-2.01412 -3.16138,-3.7369 -4.79823,-5.55584 -1.23496,-1.37234 -2.56928,-2.65389 -3.78807,-4.04061 -1.22385,-1.39247 -2.67692,-2.65011 -3.53553,-4.29315 -1.29601,-2.48004 -1.89045,-5.30922 -2.27284,-8.08122 -0.37962,-2.75186 -0.2423,-5.56643 0,-8.33376 0.12675,-1.44762 0.63086,-2.84552 0.75761,-4.29314 0.15419,-1.76103 0.43679,-3.59035 0,-5.30331 -0.26062,-1.02206 -1.11159,-1.80344 -1.51523,-2.77792 -0.57083,-1.37811 -0.60964,-2.95203 -1.26269,-4.29314 -0.31703,-0.65105 -0.65117,-1.37993 -1.26269,-1.76777 -0.79479,-0.50407 -2.03802,0.0766 -2.77792,-0.50508 -0.65179,-0.51238 -1.29012,-1.49247 -1.01015,-2.27284 0.25425,-0.70869 1.62447,-0.36968 2.0203,-1.01015 0.30979,-0.50125 0.20268,-1.21447 0,-1.76777 -0.49307,-1.34606 -2.40242,-1.89953 -2.77792,-3.283 -0.51476,-1.89657 0.62391,-3.88152 1.01016,-5.80837 0.37328,-1.86213 1.13415,-3.66102 1.26269,-5.55584 0.19447,-2.86663 -0.4239,-5.73253 -0.75762,-8.5863 -0.47427,-4.05571 -1.69002,-8.03922 -1.76776,-12.12183 -0.0451,-2.37008 0.75761,-7.07107 0.75761,-7.07107 l 2.27284,-9.09137 -1.26269,-3.78807 0.25254,0.25254"
       id="path3217"
       transform="translate(-20.571438,77.076439)"
       sodipodi:nodetypes="caaaaaaaaaaaaaaaaaaaaaaaaaaaaaaaaaaaaacccc" />
    <path
       style="fill:none;stroke:#000000;stroke-width:1px;stroke-linecap:butt;stroke-linejoin:miter;stroke-opacity:1"
       d="m 703.82379,236.01765 4.54568,-3.283 7.07107,-1.01015 3.53553,3.03046 -0.50507,0"
       id="path3219"
       transform="translate(-20.571438,77.076439)" />
    <path
       style="fill:none;stroke:#000000;stroke-width:1px;stroke-linecap:butt;stroke-linejoin:miter;stroke-opacity:1"
       d="m 719.791,308.01625 c 0,0 2.18227,-1.91012 3.53553,-2.27284 1.70943,-0.45818 3.55747,-0.0376 5.3033,0.25254 3.28509,0.54592 6.55129,1.43002 9.59645,2.77792 1.17498,0.52009 3.283,2.0203 3.283,2.0203"
       id="path3221"
       sodipodi:nodetypes="caaaa" />
    <path
       style="fill:none;stroke:#000000;stroke-width:1px;stroke-linecap:butt;stroke-linejoin:miter;stroke-opacity:1"
       d="m 740.18928,238.54303 c 0,0 3.19984,0.35439 4.79822,0.25254 2.81775,-0.17955 5.70974,-0.4729 8.33376,-1.51523 1.86615,-0.74129 3.12558,-2.71229 5.05076,-3.28299 1.0492,-0.31103 3.283,0 3.283,0"
       id="path3223"
       transform="translate(-20.571438,77.076439)"
       sodipodi:nodetypes="caaaa" />
    <path
       style="fill:none;stroke:#000000;stroke-width:1px;stroke-linecap:butt;stroke-linejoin:miter;stroke-opacity:1"
       d="m 731.85552,224.14836 6.56599,-2.02031 6.56599,-3.28299 c 0,0 4.54569,-0.25254 6.06092,0.50507 1.51523,0.75762 7.57614,2.02031 7.57614,2.02031 l 3.78807,0.75761"
       id="path3225"
       transform="translate(-20.571438,77.076439)" />
    <path
       style="fill:none;stroke:#000000;stroke-width:1px;stroke-linecap:butt;stroke-linejoin:miter;stroke-opacity:1"
       d="m 711.14739,225.41105 c 0,0 -3.28299,-0.25254 -4.29315,-0.50508 -1.01015,-0.25254 -3.78807,-0.50507 -3.78807,-0.50507"
       id="path3227"
       transform="translate(-20.571438,77.076439)" />
    <path
       style="fill:none;stroke:#000000;stroke-width:1px;stroke-linecap:butt;stroke-linejoin:miter;stroke-opacity:1"
       d="m 725.03699,273.39329 c 0,0 1.07509,-1.6317 2.77792,-2.27284 1.70283,-0.64114 5.17353,-0.0213 7.32361,-0.25254 2.15008,-0.23129 3.87051,-0.57838 5.55583,-1.01015 1.68532,-0.43177 3.49218,-0.44165 4.54569,-1.51523 1.05351,-1.07358 1.26269,-4.04061 1.26269,-4.04061 0,0 0,0 0,0"
       id="path3229"
       transform="translate(-20.571438,77.076439)"
       sodipodi:nodetypes="czzzzzz" />
    <path
       style="fill:none;stroke:#000000;stroke-width:1px;stroke-linecap:butt;stroke-linejoin:miter;stroke-opacity:1"
       d="m 741.70451,259.25116 c 0,0 2.63682,0.49033 4.04061,1.51523 1.40379,1.0249 2.32021,3.06627 3.78807,4.79822 1.46786,1.73195 3.43528,4.24317 5.05076,5.55584 1.61548,1.31267 2.93741,1.86023 4.29315,2.52538 1.35574,0.66515 2.36568,0.69936 3.78807,1.51523 1.42239,0.81587 3.32778,2.56391 4.54569,3.53554 1.21791,0.97163 2.09523,1.00019 2.77792,2.27284 0.68269,1.27265 0.45035,3.95359 0.50507,5.05076 0.0547,1.09717 0,1.51523 0,1.51523"
       id="path3231"
       transform="translate(-20.571438,77.076439)"
       sodipodi:nodetypes="czzzzzzzzz" />
    <path
       style="fill:none;stroke:#000000;stroke-width:1px;stroke-linecap:butt;stroke-linejoin:miter;stroke-opacity:1"
       d="m 767.4634,283.74736 c 0,0 -2.62534,2.43278 -3.78807,3.78807 -1.01956,1.18841 -1.85051,2.52644 -2.77792,3.78807 -1.17669,1.60075 -2.03873,3.49188 -3.53554,4.79823 -1.58935,1.38711 -3.63219,2.1646 -5.55584,3.03045 -2.93809,1.32245 -5.92767,2.6729 -9.09137,3.283 -2.39846,0.46253 -4.93017,0.7404 -7.32361,0.25254 -1.36534,-0.2783 -2.70631,-0.88948 -3.78807,-1.76777 -0.65352,-0.5306 -2.17186,-1.49357 -1.51523,-2.0203 0.60538,-0.48562 1.51523,1.76776 1.51523,1.76776"
       id="path3233"
       transform="translate(-20.571438,77.076439)"
       sodipodi:nodetypes="caaaaaaaaa" />
    <path
       style="fill:none;stroke:#000000;stroke-width:1px;stroke-linecap:butt;stroke-linejoin:miter;stroke-opacity:1"
       d="m 764.68548,286.0202 c -0.006,0 -0.85613,1.19645 -4.86137,2.65165 -2.21936,0.80635 -4.53114,1.34954 -6.75539,2.14658 -2.13374,0.76461 -4.19125,1.72929 -6.31345,2.52538 -1.60779,0.60312 -3.16688,1.42628 -4.86136,1.70463 -1.78604,0.29338 -3.69266,0.44595 -5.42957,-0.0631 -1.14313,-0.33505 -2.33002,-0.93051 -3.03046,-1.89404 -0.45919,-0.63166 -0.47279,-1.49776 -0.56821,-2.27284 -0.16457,-1.33678 0,-4.04061 0,-4.04061"
       id="path3235"
       transform="translate(-20.571438,77.076439)"
       sodipodi:nodetypes="csaaaaaaa" />
    <path
       style="fill:none;stroke:#000000;stroke-width:1px;stroke-linecap:butt;stroke-linejoin:miter;stroke-opacity:1"
       d="m 732.86567,285.76766 c 0,0 3.03158,0.0582 4.54569,0 1.09675,-0.0421 2.19777,-0.0884 3.28299,-0.25253 1.87781,-0.28404 3.66851,-1.05093 5.55584,-1.2627 2.50963,-0.2816 5.05112,-0.0421 7.57615,0 2.52643,0.0421 5.07613,0.61939 7.57614,0.25254 2.21897,-0.32561 4.80563,0.68116 6.37659,-2.14657"
       id="path3237"
       transform="translate(-20.571438,77.076439)"
       sodipodi:nodetypes="caaaaaa" />
    <path
       style="fill:none;stroke:#000000;stroke-width:1px;stroke-linecap:butt;stroke-linejoin:miter;stroke-opacity:1"
       d="m 735.13852,315.06209 c 0,0 -0.41559,3.66449 0.25253,5.3033 0.76534,1.87729 2.41499,3.33435 4.04061,4.54568 2.23466,1.66516 4.84776,2.9678 7.57615,3.53554 3.13282,0.6519 6.42102,0.14264 9.59645,-0.25254 3.42493,-0.42623 6.69264,-1.73308 10.10152,-2.27284 3.59061,-0.56853 7.70942,-2.82537 10.85914,-1.01016 1.04426,0.60182 1.11135,2.14742 1.51523,3.283 1.1357,3.19325 1.47292,6.62734 2.52538,9.84899 1.26694,3.87818 3.2665,7.49006 4.54569,11.36421 1.55564,4.71141 2.60242,9.57684 3.78807,14.39468 0.9906,4.02525 1.8298,8.08636 2.77792,12.12183 1.06939,4.55162 2.27717,9.07097 3.283,13.63706 0.92339,4.19182 1.69153,8.41635 2.52538,12.6269 0.84989,4.29155 1.57633,8.60873 2.52538,12.87945 l 17.17259,77.27667 49.49748,-128.03684 c 3.76836,-9.74775 2.76376,-20.81218 5.80837,-30.80965 0.5603,-1.83985 1.80483,-3.43784 2.27285,-5.3033 0.47293,-1.88501 0.78228,-3.88482 0.50507,-5.80838 -0.29655,-2.05782 -0.9555,-4.1999 -2.27284,-5.80837 -0.88772,-1.0839 -3.53553,-2.27285 -3.53553,-2.27285"
       id="path3239"
       transform="translate(-20.571438,77.076439)"
       sodipodi:nodetypes="caaaaaaaaaaaaascsaaaaa" />
    <path
       style="fill:none;stroke:#000000;stroke-width:1px;stroke-linecap:butt;stroke-linejoin:miter;stroke-opacity:1"
       d="m 774.28193,325.66869 13.63706,-7.07107 15.40482,-8.33376 12.12183,-10.6066 8.5863,-11.36421 2.77792,-9.09138"
       id="path3241"
       transform="translate(-20.571438,77.076439)" />
    <path
       style="fill:none;stroke:#000000;stroke-width:1px;stroke-linecap:butt;stroke-linejoin:miter;stroke-opacity:1"
       d="m 826.30478,256.72578 c 0,0 1.71164,1.87032 2.77792,2.52538 1.61183,0.99021 3.41312,1.94448 5.3033,2.0203 2.10279,0.0844 4.23185,-0.72691 6.06092,-1.76776 1.50117,-0.85426 2.73604,-2.16568 3.78807,-3.53554 2.61491,-3.4049 4.30457,-7.44677 6.06092,-11.36421 1.39464,-3.11067 2.6409,-6.30693 3.53553,-9.59645 1.12232,-4.12672 2.36689,-8.35133 2.27284,-12.62691 -0.0588,-2.67461 -0.5276,-5.45823 -1.76776,-7.82868 -1.27048,-2.42842 -3.21792,-4.63072 -5.55584,-6.06092 -2.16023,-1.3215 -4.79129,-2.03882 -7.32361,-2.0203 -2.10443,0.0154 -4.22978,0.73055 -6.06091,1.76777 -2.69518,1.52665 -5.12285,3.72128 -6.81853,6.31345 -1.12218,1.71547 -1.24915,3.90906 -2.02031,5.80838 -0.52419,1.29106 -0.70764,2.88378 -1.76777,3.78807 -0.46625,0.39771 -1.76776,0.50507 -1.76776,0.50507"
       id="path3243"
       transform="translate(-20.571438,77.076439)"
       sodipodi:nodetypes="caaaaaaaaaaaaaaa" />
    <path
       style="fill:none;stroke:#000000;stroke-width:1px;stroke-linecap:butt;stroke-linejoin:miter;stroke-opacity:1"
       d="m 832.11316,224.4009 c 0,0 1.66741,1.82768 2.77792,2.27284 1.01876,0.40838 2.20952,0.0238 3.283,0.25254 1.22395,0.26075 2.63422,0.39455 3.53553,1.26269 0.3265,0.31448 0.0814,1.10159 0.50508,1.26269 0.17594,0.0669 0.50507,-0.25254 0.50507,-0.25254"
       id="path3245"
       transform="translate(-20.571438,77.076439)"
       sodipodi:nodetypes="caaaaa" />
    <path
       style="fill:none;stroke:#000000;stroke-width:1px;stroke-linecap:butt;stroke-linejoin:miter;stroke-opacity:1"
       d="m 848.78068,223.89582 c 0,0 -0.71051,-2.17794 -1.01016,-3.283 -0.38475,-1.41889 -0.25731,-3.03041 -1.01015,-4.29314 -0.51909,-0.87066 -1.35558,-1.58888 -2.27284,-2.02031 -1.00191,-0.47125 -2.17902,-0.42065 -3.283,-0.50508 -1.17508,-0.0899 -2.41551,-0.36666 -3.53553,0 -1.48811,0.48716 -3.78807,2.77792 -3.78807,2.77792"
       id="path3247"
       transform="translate(-20.571438,77.076439)"
       sodipodi:nodetypes="caaaaaa" />
    <path
       style="fill:none;stroke:#000000;stroke-width:1px;stroke-linecap:butt;stroke-linejoin:miter;stroke-opacity:1"
       d="m 835.90123,237.53288 c 0,0 -3.07581,-5.65472 -5.05076,-4.54569 -1.19484,0.67096 0.59676,2.67974 0.75761,4.04061 0.19787,1.67404 0.62813,3.40745 0.25254,5.05077 -0.23501,1.02825 -2.27049,2.04164 -1.51523,2.77792 1.32334,1.29008 4.79823,-2.77792 4.79823,-2.77792"
       id="path3249"
       transform="translate(-20.571438,77.076439)"
       sodipodi:nodetypes="caaaaa" />
    <path
       style="fill:none;stroke:#000000;stroke-width:1px;stroke-linecap:butt;stroke-linejoin:miter;stroke-opacity:1"
       d="m 838.30034,247.82381 c 0.47668,1.23935 7.81165,-6.06732 7.44988,-7.00793"
       id="path3251"
       transform="translate(-20.571438,77.076439)"
       sodipodi:nodetypes="cs" />
    <path
       style="fill:none;stroke:#000000;stroke-width:1px;stroke-linecap:butt;stroke-linejoin:miter;stroke-opacity:1"
       d="m 759.38218,174.65088 c 0,0 5.17586,2.14009 7.82868,3.03046 2.32394,0.77999 4.71611,1.33971 7.07107,2.02031 2.73825,0.79138 5.39509,1.9357 8.20748,2.39911 2.95124,0.48629 5.97474,0.31566 8.96511,0.37881 4.29219,0.0906 8.58645,-0.0364 12.87945,0 4.96712,0.0421 9.93308,0.33149 14.89975,0.25253 3.45502,-0.0549 6.90466,-0.30063 10.35406,-0.50507 3.62216,-0.21468 7.23586,-0.56291 10.85914,-0.75762 4.45825,-0.23958 8.92172,-0.63484 13.38452,-0.50507 4.39566,0.12782 13.13198,1.26269 13.13198,1.26269"
       id="path3253"
       transform="translate(-20.571438,77.076439)"
       sodipodi:nodetypes="caaaaaaaaaa" />
    <path
       style="fill:none;stroke:#000000;stroke-width:1px;stroke-linecap:butt;stroke-linejoin:miter;stroke-opacity:1"
       d="m 759.38218,166.31713 c 1.01015,-0.25254 13.07978,-4.06523 18.68782,-7.82869 2.57014,-1.72478 4.24556,-4.51755 6.56599,-6.56599 2.87814,-2.54077 5.6922,-5.28645 9.09137,-7.07107 1.48504,-0.77967 3.12126,-1.54638 4.79823,-1.51523 1.2512,0.0232 3.53553,1.2627 3.53553,1.2627"
       id="path3255"
       transform="translate(-20.571438,77.076439)"
       sodipodi:nodetypes="caaaaa" />
    <path
       style="fill:none;stroke:#000000;stroke-width:1px;stroke-linecap:butt;stroke-linejoin:miter;stroke-opacity:1"
       d="m 744.9875,163.53921 c 0,0 7.32937,-7.35553 11.36422,-10.60661 2.07283,-1.67018 4.52225,-2.84002 6.56599,-4.54568 1.27959,-1.06791 2.17623,-2.57114 3.53553,-3.53554 2.05737,-1.45966 4.40667,-2.54387 6.81853,-3.28299 2.76592,-0.84763 5.71615,-0.90074 8.5863,-1.26269 1.59561,-0.20122 3.19259,-0.59653 4.79823,-0.50508 0.77484,0.0441 1.52715,0.28997 2.27284,0.50508 1.20239,0.34685 2.32952,0.92865 3.53553,1.26269 1.65463,0.45831 5.05077,1.01015 5.05077,1.01015"
       id="path3257"
       transform="translate(-20.571438,77.076439)"
       sodipodi:nodetypes="caaaaaaaaa" />
    <path
       style="fill:none;stroke:#000000;stroke-width:1px;stroke-linecap:butt;stroke-linejoin:miter;stroke-opacity:1"
       d="m 725.28953,166.31713 c 1.01015,-2.77792 6.63363,-10.30948 11.11168,-14.39468 4.64091,-4.23377 10.22017,-7.43886 15.9099,-10.10152 4.00261,-1.87313 8.22324,-3.67026 12.62691,-4.04061 2.96572,-0.24942 5.88561,0.89365 8.83883,1.26269 2.35222,0.29393 7.07107,0.75761 7.07107,0.75761"
       id="path3259"
       transform="translate(-20.571438,77.076439)"
       sodipodi:nodetypes="caaaaa" />
    <path
       style="fill:none;stroke:#000000;stroke-width:1px;stroke-linecap:butt;stroke-linejoin:miter;stroke-opacity:1"
       d="m 705.84409,168.84251 c 0.50508,-1.01016 7.99094,-13.20127 13.8896,-17.93021 4.93596,-3.95714 11.23229,-5.90509 17.17259,-8.08122 5.48364,-2.00884 11.15115,-3.63713 16.92006,-4.54569 1.66517,-0.26225 3.36559,-0.29443 5.05076,-0.25254 0.84573,0.021 2.52538,0.25254 2.52538,0.25254"
       id="path3261"
       transform="translate(-20.571438,77.076439)"
       sodipodi:nodetypes="caaaaa" />
    <path
       style="fill:none;stroke:#000000;stroke-width:1px;stroke-linecap:butt;stroke-linejoin:miter;stroke-opacity:1"
       d="m 704.83394,167.07474 -0.50508,-10.35406 4.04061,-8.08122 9.09138,-7.82869 12.6269,-4.04061 11.36422,-0.25254 10.35406,1.01016"
       id="path3263"
       transform="translate(-20.571438,77.076439)" />
    <path
       style="fill:none;stroke:#000000;stroke-width:1px;stroke-linecap:butt;stroke-linejoin:miter;stroke-opacity:1"
       d="m 752.81619,137.78032 0,0 z"
       id="path3265"
       transform="translate(-20.571438,77.076439)" />
    <path
       style="fill:none;stroke:#000000;stroke-width:1px;stroke-linecap:butt;stroke-linejoin:miter;stroke-opacity:1"
       d="m 724.78445,137.27524 c 1.01015,-0.50508 9.47657,-7.50784 14.64721,-10.6066 6.1034,-3.65776 12.45445,-7.05831 19.1929,-9.34391 4.3932,-1.49012 9.03363,-2.2042 13.63706,-2.77792 7.10817,-0.88588 14.30455,-0.84175 21.46574,-1.01016 6.22755,-0.14645 12.56271,-1.13439 18.68783,0 6.47157,1.19855 12.78782,3.69114 18.43528,7.07107 4.19937,2.51327 7.42207,6.38117 11.11168,9.59645 4.90148,4.27136 10.3511,7.99965 14.64721,12.87945 2.48389,2.82137 4.70604,5.94596 6.31345,9.34391 1.76531,3.73174 1.48353,8.28718 3.53554,11.86929 0.85854,1.49872 2.2648,2.61824 3.53553,3.78807 1.49921,1.38017 3.40322,2.30266 4.79823,3.78807 0.91117,0.97021 1.21059,2.48102 2.27284,3.283 3.33552,2.51828 8.06531,2.30939 11.86929,4.04061 5.49303,2.49992 10.74868,5.5803 15.65737,9.09137 4.17371,2.98536 7.84357,6.6237 11.61675,10.10153 3.72052,3.42929 7.91792,6.48938 10.85914,10.6066 2.16687,3.03326 3.06322,6.80217 4.79822,10.10153 2.58051,4.90721 6.01219,9.35978 8.33376,14.39467 2.54179,5.51247 3.98496,11.46834 6.06092,17.17259 1.72177,4.73104 3.83533,9.3263 5.3033,14.14214 1.48835,4.88269 1.48925,10.22336 3.53553,14.89975 2.35858,5.39009 6.25653,9.98779 9.84899,14.64721 3.42338,4.44012 9.23751,7.34281 11.11168,12.62691 1.40809,3.97002 -1.35033,8.50024 -0.50508,12.6269 1.92666,9.40633 9.07861,16.99317 12.37437,26.01143 2.38988,6.53949 4.88557,13.25309 5.3033,20.20305 0.40784,6.78547 -0.88434,13.6744 -2.77792,20.20305 -1.46908,5.06508 -4.16664,9.69826 -6.56599,14.39468 -1.93811,3.7936 -3.60366,7.82463 -6.31345,11.11168 -2.96204,3.59304 -6.77851,6.44008 -10.6066,9.09137 -1.57958,1.094 -3.91728,1.22643 -5.05077,2.77792 -2.83404,3.87916 -1.29034,9.57412 -2.77792,14.14213 -1.6676,5.12082 -4.14192,9.97395 -6.81853,14.64722 -2.79685,4.88321 -5.18251,10.39886 -9.59645,13.88959 -2.90593,2.29814 -7.52336,1.65042 -10.35406,4.04061 -2.2502,1.90002 -3.79797,4.72757 -4.54569,7.57615 -0.79106,3.01368 -1.17171,6.57271 0.25254,9.34391 1.59306,3.09965 9.70211,3.10825 8.33376,6.31345 -0.8368,1.9601 -4.45015,0.0244 -6.31345,-1.01015 -2.24317,-1.24549 -4.11461,-3.41952 -5.05077,-5.80838 -0.98334,-2.50926 2.25318,-7.08888 -0.25253,-8.08122 -0.99616,-0.39451 -1.20188,2.30432 -2.27285,2.27285 -1.01322,-0.0298 -1.73944,-1.29888 -2.0203,-2.27285 -0.28375,-0.98399 1.14624,-2.23193 0.50507,-3.03046 -1.00277,-1.24886 -4.22182,-1.74684 -4.79822,-0.25253 -1.05512,2.73537 6.38173,2.65675 6.81853,5.55584 0.81394,5.40226 -5.48139,9.53645 -9.09137,13.63705 -2.79949,3.17996 -6.33218,5.63305 -9.59645,8.33376 -2.72484,2.2544 -5.08638,5.16541 -8.33376,6.56599 -4.21957,1.81989 -9.05071,1.73361 -13.63706,2.02031 -3.78163,0.23639 -7.80296,1.04129 -11.36422,-0.25254 -1.01322,-0.36811 -2.59168,-0.94432 -2.52538,-2.0203 0.079,-1.28251 2.14873,-1.41656 3.283,-2.02031 0.89787,-0.47792 2.38398,-0.32493 2.77792,-1.26269 0.3816,-0.9084 -1.32724,-1.84504 -1.01016,-2.77792 0.35321,-1.03918 1.83479,-1.20638 2.77792,-1.76777 2.23419,-1.32989 4.76413,-2.19444 6.81853,-3.78807 1.74083,-1.35039 3.38185,-2.92752 4.54569,-4.79822 1.28034,-2.05795 2.22125,-4.41396 2.52538,-6.81853 0.30796,-2.43483 -0.30697,-4.91111 -0.75761,-7.32361 -0.17624,-0.94347 -0.18117,-2.01052 -0.75762,-2.77792 -3.19957,-4.25944 -15.2278,-3.24951 -13.63706,-8.33376 1.73731,-5.55269 11.73884,2.2417 17.42513,1.01016 3.53291,-0.76516 6.90167,-2.6414 9.59645,-5.05077 2.12347,-1.89856 4.74468,-4.22312 4.79823,-7.07106 0.0149,-0.79401 -0.47109,-1.95675 -1.26269,-2.02031 -2.67591,-0.21484 -3.3075,4.26553 -5.3033,6.06092 -2.06618,1.85871 -4.22281,5.79128 -6.81853,4.79822 -1.04895,-0.4013 -0.92998,-2.17321 -0.75762,-3.283 0.40546,-2.61064 2.75725,-4.50923 4.04061,-6.81852 1.15224,-2.07335 3.29758,-3.9415 3.283,-6.31346 -0.0164,-2.67389 -2.74493,-4.609 -3.78807,-7.07107 -0.862,-2.03453 -0.71831,-4.52819 -2.02031,-6.31345 -0.4267,-0.58507 -1.45667,-0.60878 -1.76777,-1.26269 -0.57976,-1.21861 0.34956,-2.6946 0.25254,-4.04061 -0.26586,-3.68858 -1.2113,-7.31662 -2.27284,-10.85914 -0.98716,-3.29429 -3.24898,-6.19995 -3.78807,-9.59645 -0.6478,-4.08142 0.66752,-8.24284 0.75761,-12.37437 0.10462,-4.79782 -0.42472,-9.5988 -0.25254,-14.39467 0.20316,-5.65894 1.11761,-11.27145 1.51523,-16.92006 0.23083,-3.27919 0.83196,-6.57797 0.50508,-9.84898 -0.37153,-3.71776 -1.18778,-7.47813 -2.77792,-10.85914 -0.97458,-2.07219 -3.20803,-3.42263 -4.04061,-5.55584 -2.12598,-5.44711 -1.68303,-11.58758 -2.02031,-17.42513 -0.18451,-3.19349 -0.1769,-6.40253 0,-9.59645 0.0843,-1.52222 1.16368,-3.17073 0.50508,-4.54569 -0.47414,-0.98987 -1.69115,-1.61424 -2.77792,-1.76777 -1.477,-0.20865 -3.08404,0.38913 -4.29315,1.26269 -1.07888,0.77946 -1.96099,1.98905 -2.27284,3.283 -0.29846,1.23841 0.50508,3.78807 0.50508,3.78807"
       id="path3267"
       transform="translate(-20.571438,77.076439)"
       sodipodi:nodetypes="caaaaaaaaaaaaaaaaaaaaaaaaaaaaaaaaaaaaaaaaaaaaaaaaaaaaaaaaaaaaaaaaaaaaaaaaaaaaaaaaaaaaaaaaaaa" />
    <path
       style="fill:none;stroke:#000000;stroke-width:1px;stroke-linecap:butt;stroke-linejoin:miter;stroke-opacity:1"
       d="m 874.79211,315.8197 2.27284,-8.83883"
       id="path3269"
       transform="translate(-20.571438,77.076439)" />
    <path
       style="fill:none;stroke:#000000;stroke-width:1px;stroke-linecap:butt;stroke-linejoin:miter;stroke-opacity:1"
       d="m 875.54972,306.72833 c 0,0 -5.3033,-13.38452 -6.31345,-13.8896 -1.01016,-0.50507 -8.83884,-13.13198 -8.83884,-13.13198 l -5.05076,-12.62691 -2.77792,-6.81853 -0.50508,-5.3033 1.51523,-2.77792 -2.0203,-2.52538 -2.02031,-0.75761"
       id="path3271"
       transform="translate(-20.571438,77.076439)" />
    <path
       style="fill:none;stroke:#000000;stroke-width:1px;stroke-linecap:butt;stroke-linejoin:miter;stroke-opacity:1"
       d="m 874.53957,177.68134 15.9099,13.38452 7.07107,12.37437 6.81853,12.12183 6.06091,15.9099 5.80838,13.8896 c 0,0 4.04061,16.92006 4.04061,17.93021 0,1.01015 -0.25254,7.82868 -0.25254,7.82868 l 0.50508,1.26269"
       id="path3273"
       transform="translate(-20.571438,77.076439)" />
    <path
       style="fill:none;stroke:#000000;stroke-width:1px;stroke-linecap:butt;stroke-linejoin:miter;stroke-opacity:1"
       d="m 708.36947,241.06841 2.27285,0.75762 4.04061,-0.75762 2.27284,-0.75761 0.75761,-0.75762"
       id="path3275"
       transform="translate(-20.571438,77.076439)" />
    <path
       style="fill:none;stroke:#000000;stroke-width:1px;stroke-linecap:butt;stroke-linejoin:miter;stroke-opacity:1"
       d="m 718.471,232.48212 c 0,0 1.06729,3.57314 1.01015,6.56599 -0.0571,2.99285 -1.36364,7.57573 -2.14657,11.11168 -0.78293,3.53595 -1.78461,7.24041 -2.52538,10.10152 -0.74077,2.86112 -1.66231,4.93663 -1.89404,7.07107 -0.23174,2.13444 -0.59418,3.93612 0.25254,5.55584 0.84672,1.61972 2.69085,2.83765 4.29315,3.28299 1.6023,0.44534 3.27305,-0.12924 4.54568,-0.50507 1.27263,-0.37583 3.03046,-1.51523 3.03046,-1.51523"
       id="path3277"
       transform="translate(-20.571438,77.076439)"
       sodipodi:nodetypes="czzzzzzzz" />
  </g>
</svg>
