<?xml version="1.0" encoding="UTF-8" standalone="no"?>
<!-- Created with Inkscape (http://www.inkscape.org/) -->

<svg
   xmlns:svg="http://www.w3.org/2000/svg"
   xmlns="http://www.w3.org/2000/svg"
   version="1.1"
   width="144"
   height="144"
   id="svg4985">
  <defs
     id="defs4987" />
  <g
     transform="translate(0,-908.36218)"
     id="layer1">
    <ellipse
       cx="198.37601"
       cy="193.994"
       rx="49.685001"
       ry="48.733002"
       transform="matrix(0.73459997,-0.67849998,0.67849998,0.73459997,-205.26077,972.7955)"
       id="ellipse56"
       style="fill:#ea242a" />
    <g
       transform="translate(-126.28408,786.69451)"
       id="g58">
      <ellipse
         cx="202.229"
         cy="191.629"
         rx="39.037998"
         ry="43.463001"
         transform="matrix(0.7346,-0.6786,0.6786,0.7346,-76.3491,188.091)"
         id="ellipse60"
         style="fill:#ea242a" />
      <ellipse
         cx="202.24001"
         cy="191.619"
         rx="38.502998"
         ry="42.675999"
         transform="matrix(0.7346,-0.6786,0.6786,0.7346,-76.3391,188.095)"
         id="ellipse62"
         style="fill:#df282b" />
      <ellipse
         cx="202.252"
         cy="191.608"
         rx="37.966999"
         ry="41.889"
         transform="matrix(0.7346,-0.6785,0.6785,0.7346,-76.3289,188.099)"
         id="ellipse64"
         style="fill:#d62a2b" />
      <ellipse
         cx="202.263"
         cy="191.59801"
         rx="37.431999"
         ry="41.101002"
         transform="matrix(0.7346,-0.6786,0.6786,0.7346,-76.3189,188.105)"
         id="ellipse66"
         style="fill:#ce2d2c" />
      <ellipse
         cx="202.274"
         cy="191.588"
         rx="36.896999"
         ry="40.313999"
         transform="matrix(0.7346,-0.6786,0.6786,0.7346,-76.3089,188.111)"
         id="ellipse68"
         style="fill:#c5302d" />
      <ellipse
         cx="202.286"
         cy="191.577"
         rx="36.361"
         ry="39.527"
         transform="matrix(0.7346,-0.6785,0.6785,0.7346,-76.2988,188.113)"
         id="ellipse70"
         style="fill:#be322d" />
      <ellipse
         cx="202.297"
         cy="191.567"
         rx="35.826"
         ry="38.740002"
         transform="matrix(0.7346,-0.6785,0.6785,0.7346,-76.2888,188.117)"
         id="ellipse72"
         style="fill:#b6332d" />
      <ellipse
         cx="202.308"
         cy="191.556"
         rx="35.291"
         ry="37.952"
         transform="matrix(0.7346,-0.6786,0.6786,0.7346,-76.2787,188.125)"
         id="ellipse74"
         style="fill:#ae342e" />
      <ellipse
         cx="202.319"
         cy="191.54601"
         rx="34.755001"
         ry="37.166"
         transform="matrix(0.7346,-0.6785,0.6785,0.7346,-76.2688,188.128)"
         id="ellipse76"
         style="fill:#a6352e" />
      <ellipse
         cx="202.33099"
         cy="191.536"
         rx="34.220001"
         ry="36.377998"
         transform="matrix(0.7346,-0.6785,0.6785,0.7346,-76.2586,188.132)"
         id="ellipse78"
         style="fill:#9f362e" />
      <ellipse
         cx="202.342"
         cy="191.52499"
         rx="33.685001"
         ry="35.591"
         transform="matrix(0.7346,-0.6785,0.6785,0.7346,-76.2487,188.136)"
         id="ellipse80"
         style="fill:#98352e" />
      <ellipse
         cx="202.353"
         cy="191.515"
         rx="33.148998"
         ry="34.804001"
         transform="matrix(0.7346,-0.6786,0.6786,0.7346,-76.2386,188.144)"
         id="ellipse82"
         style="fill:#91362e" />
      <ellipse
         cx="202.36501"
         cy="191.504"
         rx="32.613998"
         ry="34.016998"
         transform="matrix(0.7346,-0.6785,0.6785,0.7346,-76.2285,188.146)"
         id="ellipse84"
         style="fill:#89362e" />
      <ellipse
         cx="202.37601"
         cy="191.494"
         rx="32.078999"
         ry="33.23"
         transform="matrix(0.7346,-0.6785,0.6785,0.7346,-76.2185,188.15)"
         id="ellipse86"
         style="fill:#83352e" />
      <ellipse
         cx="202.38699"
         cy="191.48399"
         rx="31.542999"
         ry="32.443001"
         transform="matrix(0.7346,-0.6785,0.6785,0.7346,-76.2085,188.155)"
         id="ellipse88"
         style="fill:#7b342d" />
      <ellipse
         cx="202.39799"
         cy="191.47301"
         rx="31.007999"
         ry="31.655001"
         transform="matrix(0.7346,-0.6785,0.6785,0.7346,-76.1983,188.16)"
         id="ellipse90"
         style="fill:#75342d" />
      <ellipse
         cx="202.41"
         cy="191.463"
         rx="30.472"
         ry="30.868"
         transform="matrix(0.7346,-0.6785,0.6785,0.7346,-76.1883,188.165)"
         id="ellipse92"
         style="fill:#6e332d" />
      <ellipse
         cx="202.42101"
         cy="191.453"
         rx="29.937"
         ry="30.080999"
         transform="matrix(0.7346,-0.6785,0.6785,0.7346,-76.1784,188.169)"
         id="ellipse94"
         style="fill:#68332c" />
      <ellipse
         cx="202.43201"
         cy="191.442"
         rx="29.402"
         ry="29.294001"
         transform="matrix(0.7346,-0.6785,0.6785,0.7346,-76.1682,188.171)"
         id="ellipse96"
         style="fill:#62312c" />
      <ellipse
         cx="202.44299"
         cy="191.43201"
         rx="28.865999"
         ry="28.507"
         transform="matrix(0.7346,-0.6785,0.6785,0.7346,-76.1581,188.179)"
         id="ellipse98"
         style="fill:#5c302b" />
      <ellipse
         cx="202.455"
         cy="191.42101"
         rx="28.330999"
         ry="27.719"
         transform="matrix(0.7346,-0.6785,0.6785,0.7346,-76.1482,188.182)"
         id="ellipse100"
         style="fill:#562f2b" />
      <ellipse
         cx="202.466"
         cy="191.411"
         rx="27.795"
         ry="26.931999"
         transform="matrix(0.7346,-0.6785,0.6785,0.7346,-76.138,188.186)"
         id="ellipse102"
         style="fill:#502e2a" />
      <ellipse
         cx="202.47701"
         cy="191.401"
         rx="27.26"
         ry="26.145"
         transform="matrix(0.7346,-0.6785,0.6785,0.7346,-76.1281,188.189)"
         id="ellipse104"
         style="fill:#4a2c29" />
      <ellipse
         cx="202.489"
         cy="191.39"
         rx="26.725"
         ry="25.358"
         transform="matrix(0.7346,-0.6785,0.6785,0.7346,-76.118,188.198)"
         id="ellipse106"
         style="fill:#452b28" />
      <ellipse
         cx="202.5"
         cy="191.38"
         rx="26.190001"
         ry="24.570999"
         transform="matrix(0.7346,-0.6785,0.6785,0.7346,-76.1081,188.201)"
         id="ellipse108"
         style="fill:#3f2927" />
      <ellipse
         cx="202.511"
         cy="191.369"
         rx="25.653999"
         ry="23.784"
         transform="matrix(0.7346,-0.6785,0.6785,0.7346,-76.0979,188.202)"
         id="ellipse110"
         style="fill:#3a2826" />
      <ellipse
         cx="202.522"
         cy="191.35899"
         rx="25.118999"
         ry="22.997"
         transform="matrix(0.7346,-0.6785,0.6785,0.7346,-76.0879,188.208)"
         id="ellipse112"
         style="fill:#342625" />
      <ellipse
         cx="202.533"
         cy="191.349"
         rx="24.584"
         ry="22.209"
         transform="matrix(0.7346,-0.6785,0.6785,0.7346,-76.0779,188.214)"
         id="ellipse114"
         style="fill:#2f2423" />
      <ellipse
         cx="202.545"
         cy="191.338"
         rx="24.048"
         ry="21.422001"
         transform="matrix(0.7346,-0.6785,0.6785,0.7346,-76.0677,188.218)"
         id="ellipse116"
         style="fill:#292122" />
      <ellipse
         cx="202.556"
         cy="191.328"
         rx="23.513"
         ry="20.635"
         transform="matrix(0.7346,-0.6785,0.6785,0.7346,-76.0577,188.221)"
         id="ellipse118"
         style="fill:#231f20" />
    </g>
    <line
       style="fill:none;stroke:#000000;stroke-width:2"
       x1="42.193916"
       y1="942.23358"
       x2="35.12394"
       y2="933.74854"
       id="line120" />
    <ellipse
       cx="157.754"
       cy="142.341"
       rx="5.7740002"
       ry="5.6560001"
       transform="translate(-126.28408,786.69451)"
       id="ellipse122"
       style="fill:#bd1a8d;stroke:#000000" />
    <line
       style="fill:none;stroke:#000000;stroke-width:2"
       x1="60.380928"
       y1="933.43158"
       x2="57.666939"
       y2="922.72559"
       id="line124" />
    <ellipse
       cx="182.69099"
       cy="130.203"
       rx="5.7740002"
       ry="5.6560001"
       transform="matrix(-0.90199997,-0.43169999,0.43169999,-0.90199997,164.98691,1113.2105)"
       id="ellipse126"
       style="fill:#bd1a8d;stroke:#000000" />
    <line
       style="fill:none;stroke:#000000;stroke-width:2"
       x1="83.593941"
       y1="932.56555"
       x2="85.561928"
       y2="921.69757"
       id="line128" />
    <ellipse
       cx="213.11501"
       cy="129.177"
       rx="5.7740002"
       ry="5.6560001"
       transform="matrix(-0.64189998,-0.76679997,0.76679997,-0.64189998,124.57692,1162.2045)"
       id="ellipse130"
       style="fill:#bd1a8d;stroke:#000000" />
    <line
       style="fill:none;stroke:#000000;stroke-width:2"
       x1="102.61793"
       y1="941.67358"
       x2="107.53092"
       y2="931.78156"
       id="line132" />
    <ellipse
       cx="236.65401"
       cy="139.843"
       rx="5.7740002"
       ry="5.6560001"
       transform="matrix(-0.40329999,-0.91509997,0.91509997,-0.40329999,77.853914,1199.4915)"
       id="ellipse134"
       style="fill:#bd1a8d;stroke:#000000" />
    <line
       style="fill:none;stroke:#000000;stroke-width:2"
       x1="29.669931"
       y1="957.15454"
       x2="19.815928"
       y2="952.16858"
       id="line136" />
    <ellipse
       cx="140.877"
       cy="162.595"
       rx="5.7740002"
       ry="5.6570001"
       transform="matrix(-0.91809997,0.39639999,-0.39639999,-0.91809997,208.38591,1042.7145)"
       id="ellipse138"
       style="fill:#bd1a8d;stroke:#000000" />
    <line
       style="fill:none;stroke:#000000;stroke-width:2"
       x1="23.313944"
       y1="975.50555"
       x2="12.317941"
       y2="974.46857"
       id="line140" />
    <ellipse
       cx="132.689"
       cy="187.005"
       rx="5.7740002"
       ry="5.6560001"
       transform="matrix(-0.70939998,0.70479998,-0.70479998,-0.70939998,232.33391,1012.8565)"
       id="ellipse142"
       style="fill:#bd1a8d;stroke:#000000" />
    <line
       style="fill:none;stroke:#000000;stroke-width:2"
       x1="116.29993"
       y1="958.50757"
       x2="125.87592"
       y2="953.00354"
       id="line144" />
    <ellipse
       cx="257.43201"
       cy="163.522"
       rx="5.7740002"
       ry="5.6570001"
       transform="matrix(0.17219999,-0.98509997,0.98509997,0.17219999,-74.255876,1175.6495)"
       id="ellipse146"
       style="fill:#bd1a8d;stroke:#000000" />
    <line
       style="fill:none;stroke:#000000;stroke-width:2"
       x1="68.175941"
       y1="1029.7435"
       x2="67.831917"
       y2="1040.7836"
       id="line148" />
    <ellipse
       cx="193.72"
       cy="260.03799"
       rx="5.7740002"
       ry="5.6570001"
       transform="matrix(0.74789997,0.66379998,-0.66379998,0.74789997,95.156914,723.65562)"
       id="ellipse150"
       style="fill:#bd1a8d;stroke:#000000" />
    <line
       style="fill:none;stroke:#000000;stroke-width:2"
       x1="35.785927"
       y1="1014.2486"
       x2="28.529917"
       y2="1022.5745"
       id="line152" />
    <ellipse
       cx="150.74001"
       cy="240.235"
       rx="5.7740002"
       ry="5.6570001"
       transform="matrix(0.15859999,0.98729997,-0.98729997,0.15859999,237.73491,839.98621)"
       id="ellipse154"
       style="fill:#bd1a8d;stroke:#000000" />
    <line
       style="fill:none;stroke:#000000;stroke-width:2"
       x1="104.23093"
       y1="1017.5305"
       x2="111.37891"
       y2="1025.9495"
       id="line156" />
    <ellipse
       cx="241.36"
       cy="243.935"
       rx="5.7740002"
       ry="5.6560001"
       transform="matrix(0.99999997,-0.0092,0.0092,0.99999997,-128.52238,788.92971)"
       id="ellipse158"
       style="fill:#bd1a8d;stroke:#000000" />
    <line
       style="fill:none;stroke:#000000;stroke-width:2"
       x1="120.94392"
       y1="981.94757"
       x2="131.95393"
       y2="982.80457"
       id="line160" />
    <ellipse
       cx="264.164"
       cy="196.783"
       rx="5.7740002"
       ry="5.6560001"
       transform="matrix(0.69789998,-0.71619998,0.71619998,0.69789998,-187.41167,1035.3575)"
       id="ellipse162"
       style="fill:#bd1a8d;stroke:#000000" />
    <line
       style="fill:none;stroke:#000000;stroke-width:2"
       x1="24.598917"
       y1="994.45056"
       x2="14.617929"
       y2="999.17755"
       id="line164" />
    <ellipse
       cx="135.425"
       cy="214.84399"
       rx="5.7740002"
       ry="5.6560001"
       transform="matrix(-0.24969999,0.96829997,-0.96829997,-0.24969999,250.99791,924.05751)"
       id="ellipse166"
       style="fill:#bd1a8d;stroke:#000000" />
    <line
       style="fill:none;stroke:#000000;stroke-width:2"
       x1="116.84293"
       y1="1000.9595"
       x2="126.94693"
       y2="1005.4196"
       id="line168" />
    <ellipse
       cx="258.59799"
       cy="221.32401"
       rx="5.7740002"
       ry="5.6560001"
       transform="matrix(0.89589997,-0.44429998,0.44429998,0.89589997,-197.69287,924.63551)"
       id="ellipse170"
       style="fill:#bd1a8d;stroke:#000000" />
    <line
       style="fill:none;stroke:#000000;stroke-width:2"
       x1="50.27494"
       y1="1025.0486"
       x2="45.787941"
       y2="1035.1405"
       id="line172" />
    <ellipse
       cx="169.45799"
       cy="253.806"
       rx="5.7740002"
       ry="5.6560001"
       transform="matrix(0.44189998,0.89709997,-0.89709997,0.44189998,195.98191,776.33581)"
       id="ellipse174"
       style="fill:#bd1a8d;stroke:#000000" />
    <line
       style="fill:none;stroke:#000000;stroke-width:2"
       x1="84.972939"
       y1="1027.6016"
       x2="89.795937"
       y2="1037.5375"
       id="line176" />
    <ellipse
       cx="218.493"
       cy="256.29599"
       rx="5.7740002"
       ry="5.6560001"
       transform="matrix(0.97069997,0.24039999,-0.24039999,0.97069997,-58.254976,741.68102)"
       id="ellipse178"
       style="fill:#bd1a8d;stroke:#000000" />
    <text
       x="64.441933"
       y="984.93854"
       id="text551"
       style="font-size:20.39999962px;fill:#ffffff;font-family:Myriad-Roman">A</text>
  </g>
</svg>
