<?xml version="1.0" encoding="UTF-8" standalone="no"?>
<!-- Created with Inkscape (http://www.inkscape.org/) -->

<svg
   xmlns:svg="http://www.w3.org/2000/svg"
   xmlns="http://www.w3.org/2000/svg"
   version="1.1"
   width="149"
   height="152"
   id="svg4368">
  <defs
     id="defs4370" />
  <g
     transform="translate(0,-900.36218)"
     id="layer1">
    <ellipse
       cx="358.62299"
       cy="194.327"
       rx="49.686001"
       ry="48.733002"
       transform="matrix(0.73459997,-0.67849998,0.67849998,0.73459997,-320.89543,1077.9234)"
       id="ellipse288"
       style="fill:#ea242a" />
    <line
       style="fill:none;stroke:#000000;stroke-width:2"
       x1="39.943184"
       y1="943.31628"
       x2="31.225166"
       y2="932.39825"
       id="line290" />
    <rect
       width="10.916648"
       height="10.917648"
       x="-108.78492"
       y="-928.24536"
       transform="matrix(-0.99663211,-0.08200264,0.08200264,-0.99663211,0,0)"
       id="rect292"
       style="fill:#007070" />
    <line
       style="fill:none;stroke:#000000;stroke-width:2"
       x1="108.64118"
       y1="941.68628"
       x2="117.32014"
       y2="930.73828"
       id="line294" />
    <rect
       width="10.916084"
       height="10.917084"
       x="-939.1286"
       y="-19.36587"
       transform="matrix(-0.1438989,-0.98959239,0.98959239,-0.1438989,0,0)"
       id="rect296"
       style="fill:#007070" />
    <line
       style="fill:none;stroke:#000000;stroke-width:2"
       x1="121.71918"
       y1="988.67426"
       x2="134.93416"
       y2="993.2063"
       id="line298" />
    <rect
       width="10.915587"
       height="10.916587"
       x="-344.34763"
       y="940.19141"
       transform="matrix(0.88493341,-0.46571758,0.46571758,0.88493341,0,0)"
       id="rect300"
       style="fill:#007070" />
    <line
       style="fill:none;stroke:#000000;stroke-width:2"
       x1="122.19617"
       y1="966.19031"
       x2="135.62715"
       y2="962.34326"
       id="line302" />
    <rect
       width="10.918149"
       height="10.917149"
       x="-793.84723"
       y="560.72522"
       transform="matrix(0.45909372,-0.88838784,0.88838784,0.45909372,0,0)"
       id="rect304"
       style="fill:#007070" />
    <line
       style="fill:none;stroke:#000000;stroke-width:2"
       x1="74.94117"
       y1="928.21826"
       x2="75.039192"
       y2="914.24628"
       id="line306" />
    <rect
       width="10.918323"
       height="10.917322"
       x="-687.23285"
       y="-610.49646"
       transform="matrix(-0.72277866,-0.6910796,0.6910796,-0.72277866,0,0)"
       id="rect308"
       style="fill:#007070" />
    <line
       style="fill:none;stroke:#000000;stroke-width:2"
       x1="26.044167"
       y1="970.88831"
       x2="12.925178"
       y2="966.08228"
       id="line310" />
    <rect
       width="10.916668"
       height="10.917668"
       x="419.27911"
       y="-871.42004"
       transform="matrix(-0.89442719,0.4472136,-0.4472136,-0.89442719,0,0)"
       id="rect312"
       style="fill:#007070" />
    <line
       style="fill:none;stroke:#000000;stroke-width:2"
       x1="42.907173"
       y1="1015.1912"
       x2="34.559181"
       y2="1026.3954"
       id="line314" />
    <rect
       width="10.916824"
       height="10.916824"
       x="1015.6037"
       y="142.60545"
       transform="matrix(0.17360277,0.98481576,-0.98481576,0.17360277,0,0)"
       id="rect316"
       style="fill:#007070" />
    <line
       style="fill:none;stroke:#000000;stroke-width:2"
       x1="109.8922"
       y1="1010.3303"
       x2="120.24818"
       y2="1019.7083"
       id="line318" />
    <rect
       width="10.917104"
       height="10.917104"
       x="38.340115"
       y="1024.4525"
       transform="matrix(0.9968905,-0.07879925,0.07879925,0.9968905,0,0)"
       id="rect320"
       style="fill:#007070" />
    <line
       style="fill:none;stroke:#000000;stroke-width:2"
       x1="90.950172"
       y1="1023.1144"
       x2="95.370186"
       y2="1036.3683"
       id="line322" />
    <rect
       width="10.916542"
       height="10.916542"
       x="521.23767"
       y="898.54437"
       transform="matrix(0.90723801,0.42061763,-0.42061763,0.90723801,0,0)"
       id="rect324"
       style="fill:#007070" />
    <line
       style="fill:none;stroke:#000000;stroke-width:2"
       x1="28.64518"
       y1="997.01721"
       x2="16.07917"
       y2="1003.1234"
       id="line326" />
    <rect
       width="10.915773"
       height="10.915773"
       x="951.19171"
       y="-316.93698"
       transform="matrix(-0.29910621,0.95421983,-0.95421983,-0.29910621,0,0)"
       id="rect328"
       style="fill:#007070" />
    <line
       style="fill:none;stroke:#000000;stroke-width:2"
       x1="64.986191"
       y1="1025.5414"
       x2="62.0392"
       y2="1039.1984"
       id="line330" />
    <rect
       width="10.917344"
       height="10.917344"
       x="890.34412"
       y="536.01318"
       transform="matrix(0.56648214,0.82407402,-0.82407402,0.56648214,0,0)"
       id="rect332"
       style="fill:#007070" />
    <g
       transform="translate(-284.22983,782.99628)"
       id="g334">
      <ellipse
         cx="362.47699"
         cy="191.96201"
         rx="39.037998"
         ry="43.462002"
         transform="matrix(0.7345,-0.6786,0.6786,0.7345,-34.0363,296.92)"
         id="ellipse336"
         style="fill:#ea242a" />
      <ellipse
         cx="362.48801"
         cy="191.952"
         rx="38.502998"
         ry="42.674999"
         transform="matrix(0.7345,-0.6786,0.6786,0.7345,-34.0267,296.923)"
         id="ellipse338"
         style="fill:#df282b" />
      <ellipse
         cx="362.5"
         cy="191.94099"
         rx="37.966999"
         ry="41.888"
         transform="matrix(0.7345,-0.6786,0.6786,0.7345,-34.0169,296.927)"
         id="ellipse340"
         style="fill:#d62a2b" />
      <ellipse
         cx="362.51099"
         cy="191.931"
         rx="37.431999"
         ry="41.099998"
         transform="matrix(0.7345,-0.6786,0.6786,0.7345,-34.0063,296.934)"
         id="ellipse342"
         style="fill:#ce2d2c" />
      <ellipse
         cx="362.522"
         cy="191.92"
         rx="36.896999"
         ry="40.313"
         transform="matrix(0.7345,-0.6786,0.6786,0.7345,-33.9962,296.939)"
         id="ellipse344"
         style="fill:#c5302d" />
      <ellipse
         cx="362.53299"
         cy="191.91"
         rx="36.361"
         ry="39.526001"
         transform="matrix(0.7345,-0.6786,0.6786,0.7345,-33.9866,296.943)"
         id="ellipse346"
         style="fill:#be322d" />
      <ellipse
         cx="362.54501"
         cy="191.89999"
         rx="35.826"
         ry="38.738998"
         transform="matrix(0.7346,-0.6786,0.6786,0.7346,-33.9774,296.944)"
         id="ellipse348"
         style="fill:#b6332d" />
      <ellipse
         cx="362.556"
         cy="191.88901"
         rx="35.291"
         ry="37.952"
         transform="matrix(0.7346,-0.6786,0.6786,0.7346,-33.9673,296.95)"
         id="ellipse350"
         style="fill:#ae342e" />
      <ellipse
         cx="362.56699"
         cy="191.879"
         rx="34.755001"
         ry="37.165001"
         transform="matrix(0.7345,-0.6786,0.6786,0.7345,-33.9566,296.957)"
         id="ellipse352"
         style="fill:#a6352e" />
      <ellipse
         cx="362.57901"
         cy="191.869"
         rx="34.220001"
         ry="36.377998"
         transform="matrix(0.7345,-0.6786,0.6786,0.7345,-33.9465,296.962)"
         id="ellipse354"
         style="fill:#9f362e" />
      <ellipse
         cx="362.59"
         cy="191.858"
         rx="33.685001"
         ry="35.591"
         transform="matrix(0.7346,-0.6786,0.6786,0.7346,-33.9374,296.963)"
         id="ellipse356"
         style="fill:#98352e" />
      <ellipse
         cx="362.60101"
         cy="191.84801"
         rx="33.148998"
         ry="34.804001"
         transform="matrix(0.7346,-0.6786,0.6786,0.7346,-33.9273,296.969)"
         id="ellipse358"
         style="fill:#91362e" />
      <ellipse
         cx="362.61301"
         cy="191.838"
         rx="32.613998"
         ry="34.016998"
         transform="matrix(0.7346,-0.6785,0.6785,0.7346,-33.9178,296.972)"
         id="ellipse360"
         style="fill:#89362e" />
      <ellipse
         cx="362.62399"
         cy="191.827"
         rx="32.078999"
         ry="33.229"
         transform="matrix(0.7346,-0.6785,0.6785,0.7346,-33.9075,296.977)"
         id="ellipse362"
         style="fill:#83352e" />
      <ellipse
         cx="362.63501"
         cy="191.817"
         rx="31.542999"
         ry="32.442001"
         transform="matrix(0.7346,-0.6785,0.6785,0.7346,-33.8974,296.982)"
         id="ellipse364"
         style="fill:#7b342d" />
      <ellipse
         cx="362.646"
         cy="191.806"
         rx="31.007999"
         ry="31.655001"
         transform="matrix(0.7346,-0.6785,0.6785,0.7346,-33.8879,296.986)"
         id="ellipse366"
         style="fill:#75342d" />
      <ellipse
         cx="362.65799"
         cy="191.79601"
         rx="30.472"
         ry="30.868"
         transform="matrix(0.7346,-0.6785,0.6785,0.7346,-33.8778,296.991)"
         id="ellipse368"
         style="fill:#6e332d" />
      <ellipse
         cx="362.66901"
         cy="191.785"
         rx="29.937"
         ry="30.08"
         transform="matrix(0.7346,-0.6785,0.6785,0.7346,-33.8675,296.996)"
         id="ellipse370"
         style="fill:#68332c" />
      <ellipse
         cx="362.67999"
         cy="191.77499"
         rx="29.402"
         ry="29.292999"
         transform="matrix(0.7346,-0.6785,0.6785,0.7346,-33.8581,296.999)"
         id="ellipse372"
         style="fill:#62312c" />
      <ellipse
         cx="362.69101"
         cy="191.765"
         rx="28.865999"
         ry="28.506001"
         transform="matrix(0.7346,-0.6785,0.6785,0.7346,-33.8479,297.004)"
         id="ellipse374"
         style="fill:#5c302b" />
      <ellipse
         cx="362.703"
         cy="191.754"
         rx="28.330999"
         ry="27.719"
         transform="matrix(0.7346,-0.6785,0.6785,0.7346,-33.839,297.005)"
         id="ellipse376"
         style="fill:#562f2b" />
      <ellipse
         cx="362.71399"
         cy="191.744"
         rx="27.796"
         ry="26.931999"
         transform="matrix(0.7346,-0.6785,0.6785,0.7346,-33.8289,297.01)"
         id="ellipse378"
         style="fill:#502e2a" />
      <ellipse
         cx="362.72501"
         cy="191.73399"
         rx="27.26"
         ry="26.145"
         transform="matrix(0.7346,-0.6785,0.6785,0.7346,-33.8181,297.018)"
         id="ellipse380"
         style="fill:#4a2c29" />
      <ellipse
         cx="362.737"
         cy="191.72301"
         rx="26.725"
         ry="25.358"
         transform="matrix(0.7346,-0.6785,0.6785,0.7346,-33.808,297.023)"
         id="ellipse382"
         style="fill:#452b28" />
      <ellipse
         cx="362.74799"
         cy="191.713"
         rx="26.190001"
         ry="24.570999"
         transform="matrix(0.7346,-0.6785,0.6785,0.7346,-33.7992,297.023)"
         id="ellipse384"
         style="fill:#3f2927" />
      <ellipse
         cx="362.759"
         cy="191.703"
         rx="25.653999"
         ry="23.784"
         transform="matrix(0.7346,-0.6785,0.6785,0.7346,-33.7899,297.026)"
         id="ellipse386"
         style="fill:#3a2826" />
      <ellipse
         cx="362.771"
         cy="191.692"
         rx="25.118999"
         ry="22.997"
         transform="matrix(0.7346,-0.6785,0.6785,0.7346,-33.7798,297.031)"
         id="ellipse388"
         style="fill:#342625" />
      <ellipse
         cx="362.78101"
         cy="191.68201"
         rx="24.584"
         ry="22.209"
         transform="matrix(0.7346,-0.6785,0.6785,0.7346,-33.7689,297.039)"
         id="ellipse390"
         style="fill:#2f2423" />
      <ellipse
         cx="362.793"
         cy="191.67101"
         rx="24.048"
         ry="21.422001"
         transform="matrix(0.7346,-0.6785,0.6785,0.7346,-33.7594,297.041)"
         id="ellipse392"
         style="fill:#292122" />
      <ellipse
         cx="362.80399"
         cy="191.661"
         rx="23.513"
         ry="20.635"
         transform="matrix(0.7346,-0.6785,0.6785,0.7346,-33.7502,297.044)"
         id="ellipse394"
         style="fill:#231f20" />
    </g>
    <text
       x="69.426155"
       y="981.12427"
       id="text553"
       style="font-size:20.39999962px;fill:#ffffff;font-family:Myriad-Roman">B</text>
  </g>
</svg>
