<?xml version="1.0" encoding="UTF-8" standalone="no"?>
<!-- Created with Inkscape (http://www.inkscape.org/) -->

<svg
   xmlns:dc="http://purl.org/dc/elements/1.1/"
   xmlns:cc="http://creativecommons.org/ns#"
   xmlns:rdf="http://www.w3.org/1999/02/22-rdf-syntax-ns#"
   xmlns:svg="http://www.w3.org/2000/svg"
   xmlns="http://www.w3.org/2000/svg"
   xmlns:sodipodi="http://sodipodi.sourceforge.net/DTD/sodipodi-0.dtd"
   xmlns:inkscape="http://www.inkscape.org/namespaces/inkscape"
   width="210mm"
   height="297mm"
   id="svg3485"
   version="1.1"
   inkscape:version="0.47 r22583"
   sodipodi:docname="Novo documento 4">
  <defs
     id="defs3487">
    <inkscape:perspective
       sodipodi:type="inkscape:persp3d"
       inkscape:vp_x="0 : 526.18109 : 1"
       inkscape:vp_y="0 : 1000 : 0"
       inkscape:vp_z="744.09448 : 526.18109 : 1"
       inkscape:persp3d-origin="372.04724 : 350.78739 : 1"
       id="perspective3493" />
    <inkscape:perspective
       id="perspective3426"
       inkscape:persp3d-origin="0.5 : 0.33333333 : 1"
       inkscape:vp_z="1 : 0.5 : 1"
       inkscape:vp_y="0 : 1000 : 0"
       inkscape:vp_x="0 : 0.5 : 1"
       sodipodi:type="inkscape:persp3d" />
  </defs>
  <sodipodi:namedview
     id="base"
     pagecolor="#ffffff"
     bordercolor="#666666"
     borderopacity="1.0"
     inkscape:pageopacity="0.0"
     inkscape:pageshadow="2"
     inkscape:zoom="1.4"
     inkscape:cx="368.57349"
     inkscape:cy="824.05107"
     inkscape:document-units="px"
     inkscape:current-layer="layer1"
     showgrid="false"
     inkscape:window-width="1920"
     inkscape:window-height="1058"
     inkscape:window-x="0"
     inkscape:window-y="0"
     inkscape:window-maximized="1" />
  <metadata
     id="metadata3490">
    <rdf:RDF>
      <cc:Work
         rdf:about="">
        <dc:format>image/svg+xml</dc:format>
        <dc:type
           rdf:resource="http://purl.org/dc/dcmitype/StillImage" />
        <dc:title></dc:title>
      </cc:Work>
    </rdf:RDF>
  </metadata>
  <g
     inkscape:label="Camada 1"
     inkscape:groupmode="layer"
     id="layer1">
    <ellipse
       style="fill:#ea242a"
       sodipodi:ry="48.733002"
       sodipodi:rx="49.686001"
       sodipodi:cy="194.327"
       sodipodi:cx="358.62299"
       transform="matrix(0.73459997,-0.67849998,0.67849998,0.73459997,-316.54993,181.50123)"
       cx="358.62299"
       cy="194.327"
       rx="49.686001"
       ry="48.733002"
       id="ellipse288" />
    <line
       style="fill:none;stroke:#000000;stroke-width:2"
       x1="44.28867"
       y1="46.894253"
       x2="35.570652"
       y2="35.976223"
       id="line290" />
    <rect
       style="fill:#007070"
       x="-39.606842"
       y="-34.486065"
       transform="matrix(-0.99663211,-0.08200264,0.08200264,-0.99663211,0,0)"
       width="10.916648"
       height="10.917648"
       id="rect292" />
    <line
       style="fill:none;stroke:#000000;stroke-width:2"
       x1="112.98666"
       y1="45.264248"
       x2="121.66563"
       y2="34.31625"
       id="line294" />
    <rect
       style="fill:#007070"
       x="-52.661434"
       y="113.92857"
       transform="matrix(-0.1438989,-0.98959239,0.98959239,-0.1438989,0,0)"
       width="10.916084"
       height="10.917084"
       id="rect296" />
    <line
       style="fill:none;stroke:#000000;stroke-width:2"
       x1="126.06467"
       y1="92.252228"
       x2="139.27968"
       y2="96.784271"
       id="line298" />
    <rect
       style="fill:#007070"
       x="76.977386"
       y="148.94122"
       transform="matrix(0.88493341,-0.46571758,0.46571758,0.88493341,0,0)"
       width="10.915587"
       height="10.916587"
       id="rect300" />
    <line
       style="fill:none;stroke:#000000;stroke-width:2"
       x1="126.54166"
       y1="69.76825"
       x2="139.97267"
       y2="65.921234"
       id="line302" />
    <rect
       style="fill:#007070"
       x="4.5181279"
       y="153.04398"
       transform="matrix(0.45909371,-0.88838784,0.88838784,0.45909371,0,0)"
       width="10.918149"
       height="10.917149"
       id="rect304" />
    <line
       style="fill:none;stroke:#000000;stroke-width:2"
       x1="79.286652"
       y1="31.796232"
       x2="79.384666"
       y2="17.824247"
       id="line306" />
    <rect
       style="fill:#007070"
       x="-70.87468"
       y="40.421272"
       transform="matrix(-0.72277866,-0.6910796,0.6910796,-0.72277866,0,0)"
       width="10.918323"
       height="10.917322"
       id="rect308" />
    <line
       style="fill:none;stroke:#000000;stroke-width:2"
       x1="30.389652"
       y1="74.466248"
       x2="17.270664"
       y2="69.660248"
       id="line310" />
    <rect
       style="fill:#007070"
       x="14.500256"
       y="-71.579201"
       transform="matrix(-0.89442719,0.44721359,-0.44721359,-0.89442719,0,0)"
       width="10.916668"
       height="10.917668"
       id="rect312" />
    <line
       style="fill:none;stroke:#000000;stroke-width:2"
       x1="47.252659"
       y1="118.76926"
       x2="38.904667"
       y2="129.97324"
       id="line314" />
    <rect
       style="fill:#007070"
       x="133.54755"
       y="-17.295429"
       transform="matrix(0.17360277,0.98481576,-0.98481576,0.17360277,0,0)"
       width="10.916824"
       height="10.916824"
       id="rect316" />
    <line
       style="fill:none;stroke:#000000;stroke-width:2"
       x1="114.23768"
       y1="113.90823"
       x2="124.59367"
       y2="123.28622"
       id="line318" />
    <rect
       style="fill:#007070"
       x="113.30949"
       y="131.16043"
       transform="matrix(0.9968905,-0.07879925,0.07879925,0.9968905,0,0)"
       width="10.917104"
       height="10.917104"
       id="rect320" />
    <line
       style="fill:none;stroke:#000000;stroke-width:2"
       x1="95.295647"
       y1="126.69223"
       x2="99.71566"
       y2="139.94624"
       id="line322" />
    <rect
       style="fill:#007070"
       x="148.12923"
       y="83.448402"
       transform="matrix(0.90723801,0.42061763,-0.42061763,0.90723801,0,0)"
       width="10.916542"
       height="10.916542"
       id="rect324" />
    <line
       style="fill:none;stroke:#000000;stroke-width:2"
       x1="32.990665"
       y1="100.59525"
       x2="20.424656"
       y2="106.70126"
       id="line326" />
    <rect
       style="fill:#007070"
       x="94.508232"
       y="-52.958157"
       transform="matrix(-0.29910621,0.95421982,-0.95421982,-0.29910621,0,0)"
       width="10.915773"
       height="10.915773"
       id="rect328" />
    <line
       style="fill:none;stroke:#000000;stroke-width:2"
       x1="69.331673"
       y1="129.11923"
       x2="66.384666"
       y2="142.7762"
       id="line330" />
    <rect
       style="fill:#007070"
       x="154.08768"
       y="24.625019"
       transform="matrix(0.56648214,0.82407402,-0.82407402,0.56648214,0,0)"
       width="10.917344"
       height="10.917344"
       id="rect332" />
    <g
       transform="translate(-279.88433,-113.42576)"
       id="g334">
      <ellipse
         style="fill:#ea242a"
         sodipodi:ry="43.462002"
         sodipodi:rx="39.037998"
         sodipodi:cy="191.96201"
         sodipodi:cx="362.47699"
         transform="matrix(0.7345,-0.6786,0.6786,0.7345,-34.0363,296.92)"
         enable-background="new    "
         cx="362.47699"
         cy="191.96201"
         rx="39.037998"
         ry="43.462002"
         id="ellipse336"
         d="m 401.51499,191.96201 c 0,24.0034 -17.47791,43.462 -39.038,43.462 -21.56009,0 -39.038,-19.4586 -39.038,-43.462 0,-24.00341 17.47791,-43.46201 39.038,-43.46201 21.56009,0 39.038,19.4586 39.038,43.46201 z" />
      <ellipse
         style="fill:#df282b"
         sodipodi:ry="42.674999"
         sodipodi:rx="38.502998"
         sodipodi:cy="191.952"
         sodipodi:cx="362.48801"
         transform="matrix(0.7345,-0.6786,0.6786,0.7345,-34.0267,296.923)"
         cx="362.48801"
         cy="191.952"
         rx="38.502998"
         ry="42.674999"
         id="ellipse338"
         d="m 400.991,191.952 c 0,23.56875 -17.23837,42.675 -38.50299,42.675 -21.26462,0 -38.503,-19.10625 -38.503,-42.675 0,-23.56876 17.23838,-42.675 38.503,-42.675 21.26462,0 38.50299,19.10624 38.50299,42.675 z" />
      <ellipse
         style="fill:#d62a2b"
         sodipodi:ry="41.888"
         sodipodi:rx="37.966999"
         sodipodi:cy="191.94099"
         sodipodi:cx="362.5"
         transform="matrix(0.7345,-0.6786,0.6786,0.7345,-34.0169,296.927)"
         cx="362.5"
         cy="191.94099"
         rx="37.966999"
         ry="41.888"
         id="ellipse340"
         d="m 400.467,191.94099 c 0,23.13411 -16.99841,41.888 -37.967,41.888 -20.96859,0 -37.967,-18.75389 -37.967,-41.888 0,-23.1341 16.99841,-41.888 37.967,-41.888 20.96859,0 37.967,18.7539 37.967,41.888 z" />
      <ellipse
         style="fill:#ce2d2c"
         sodipodi:ry="41.099998"
         sodipodi:rx="37.431999"
         sodipodi:cy="191.931"
         sodipodi:cx="362.51099"
         transform="matrix(0.7345,-0.6786,0.6786,0.7345,-34.0063,296.934)"
         cx="362.51099"
         cy="191.931"
         rx="37.431999"
         ry="41.099998"
         id="ellipse342"
         d="m 399.94299,191.931 c 0,22.6989 -16.75888,41.1 -37.432,41.1 -20.67313,0 -37.432,-18.4011 -37.432,-41.1 0,-22.6989 16.75887,-41.1 37.432,-41.1 20.67312,0 37.432,18.4011 37.432,41.1 z" />
      <ellipse
         style="fill:#c5302d"
         sodipodi:ry="40.313"
         sodipodi:rx="36.896999"
         sodipodi:cy="191.92"
         sodipodi:cx="362.522"
         transform="matrix(0.7345,-0.6786,0.6786,0.7345,-33.9962,296.939)"
         cx="362.522"
         cy="191.92"
         rx="36.896999"
         ry="40.313"
         id="ellipse344"
         d="m 399.419,191.92 c 0,22.26425 -16.51935,40.313 -36.897,40.313 -20.37765,0 -36.897,-18.04875 -36.897,-40.313 0,-22.26426 16.51935,-40.313 36.897,-40.313 20.37765,0 36.897,18.04874 36.897,40.313 z" />
      <ellipse
         style="fill:#be322d"
         sodipodi:ry="39.526001"
         sodipodi:rx="36.361"
         sodipodi:cy="191.91"
         sodipodi:cx="362.53299"
         transform="matrix(0.7345,-0.6786,0.6786,0.7345,-33.9866,296.943)"
         cx="362.53299"
         cy="191.91"
         rx="36.361"
         ry="39.526001"
         id="ellipse346"
         d="m 398.89399,191.91 c 0,21.82961 -16.27937,39.526 -36.361,39.526 -20.08163,0 -36.361,-17.69639 -36.361,-39.526 0,-21.8296 16.27937,-39.526 36.361,-39.526 20.08163,0 36.361,17.6964 36.361,39.526 z" />
      <ellipse
         style="fill:#b6332d"
         sodipodi:ry="38.738998"
         sodipodi:rx="35.826"
         sodipodi:cy="191.89999"
         sodipodi:cx="362.54501"
         transform="matrix(0.7346,-0.6786,0.6786,0.7346,-33.9774,296.944)"
         cx="362.54501"
         cy="191.89999"
         rx="35.826"
         ry="38.738998"
         id="ellipse348"
         d="m 398.37101,191.89999 c 0,21.39496 -16.03984,38.739 -35.826,38.739 -19.78615,0 -35.826,-17.34404 -35.826,-38.739 0,-21.39495 16.03985,-38.73899 35.826,-38.73899 19.78616,0 35.826,17.34404 35.826,38.73899 z" />
      <ellipse
         style="fill:#ae342e"
         sodipodi:ry="37.952"
         sodipodi:rx="35.291"
         sodipodi:cy="191.88901"
         sodipodi:cx="362.556"
         transform="matrix(0.7346,-0.6786,0.6786,0.7346,-33.9673,296.95)"
         cx="362.556"
         cy="191.88901"
         rx="35.291"
         ry="37.952"
         id="ellipse350"
         d="m 397.847,191.88901 c 0,20.96031 -15.80032,37.952 -35.291,37.952 -19.49068,0 -35.291,-16.99169 -35.291,-37.952 0,-20.96031 15.80032,-37.952 35.291,-37.952 19.49068,0 35.291,16.99169 35.291,37.952 z" />
      <ellipse
         style="fill:#a6352e"
         sodipodi:ry="37.165001"
         sodipodi:rx="34.755001"
         sodipodi:cy="191.879"
         sodipodi:cx="362.56699"
         transform="matrix(0.7345,-0.6786,0.6786,0.7345,-33.9566,296.957)"
         cx="362.56699"
         cy="191.879"
         rx="34.755001"
         ry="37.165001"
         id="ellipse352"
         d="m 397.32199,191.879 c 0,20.52566 -15.56035,37.165 -34.755,37.165 -19.19466,0 -34.755,-16.63934 -34.755,-37.165 0,-20.52567 15.56034,-37.165 34.755,-37.165 19.19465,0 34.755,16.63933 34.755,37.165 z" />
      <ellipse
         style="fill:#9f362e"
         sodipodi:ry="36.377998"
         sodipodi:rx="34.220001"
         sodipodi:cy="191.869"
         sodipodi:cx="362.57901"
         transform="matrix(0.7345,-0.6786,0.6786,0.7345,-33.9465,296.962)"
         cx="362.57901"
         cy="191.869"
         rx="34.220001"
         ry="36.377998"
         id="ellipse354"
         d="m 396.79901,191.869 c 0,20.09102 -15.32082,36.378 -34.22,36.378 -18.89918,0 -34.22,-16.28698 -34.22,-36.378 0,-20.09101 15.32082,-36.378 34.22,-36.378 18.89918,0 34.22,16.28699 34.22,36.378 z" />
      <ellipse
         style="fill:#98352e"
         sodipodi:ry="35.591"
         sodipodi:rx="33.685001"
         sodipodi:cy="191.858"
         sodipodi:cx="362.59"
         transform="matrix(0.7346,-0.6786,0.6786,0.7346,-33.9374,296.963)"
         cx="362.59"
         cy="191.858"
         rx="33.685001"
         ry="35.591"
         id="ellipse356"
         d="m 396.275,191.858 c 0,19.65637 -15.08129,35.591 -33.685,35.591 -18.60372,0 -33.68501,-15.93463 -33.68501,-35.591 0,-19.65636 15.08129,-35.591 33.68501,-35.591 18.60371,0 33.685,15.93464 33.685,35.591 z" />
      <ellipse
         style="fill:#91362e"
         sodipodi:ry="34.804001"
         sodipodi:rx="33.148998"
         sodipodi:cy="191.84801"
         sodipodi:cx="362.60101"
         transform="matrix(0.7346,-0.6786,0.6786,0.7346,-33.9273,296.969)"
         cx="362.60101"
         cy="191.84801"
         rx="33.148998"
         ry="34.804001"
         id="ellipse358"
         d="m 395.75001,191.84801 c 0,19.22172 -14.84131,34.804 -33.149,34.804 -18.30768,0 -33.149,-15.58228 -33.149,-34.804 0,-19.22172 14.84132,-34.804 33.149,-34.804 18.30769,0 33.149,15.58228 33.149,34.804 z" />
      <ellipse
         style="fill:#89362e"
         sodipodi:ry="34.016998"
         sodipodi:rx="32.613998"
         sodipodi:cy="191.838"
         sodipodi:cx="362.61301"
         transform="matrix(0.7346,-0.6785,0.6785,0.7346,-33.9178,296.972)"
         cx="362.61301"
         cy="191.838"
         rx="32.613998"
         ry="34.016998"
         id="ellipse360"
         d="m 395.22701,191.838 c 0,18.78707 -14.60179,34.017 -32.614,34.017 -18.01222,0 -32.614,-15.22993 -32.614,-34.017 0,-18.78707 14.60178,-34.017 32.614,-34.017 18.01221,0 32.614,15.22993 32.614,34.017 z" />
      <ellipse
         style="fill:#83352e"
         sodipodi:ry="33.229"
         sodipodi:rx="32.078999"
         sodipodi:cy="191.827"
         sodipodi:cx="362.62399"
         transform="matrix(0.7346,-0.6785,0.6785,0.7346,-33.9075,296.977)"
         cx="362.62399"
         cy="191.827"
         rx="32.078999"
         ry="33.229"
         id="ellipse362"
         d="m 394.70299,191.827 c 0,18.35187 -14.36226,33.229 -32.079,33.229 -17.71674,0 -32.079,-14.87713 -32.079,-33.229 0,-18.35187 14.36226,-33.229 32.079,-33.229 17.71674,0 32.079,14.87713 32.079,33.229 z" />
      <ellipse
         style="fill:#7b342d"
         sodipodi:ry="32.442001"
         sodipodi:rx="31.542999"
         sodipodi:cy="191.817"
         sodipodi:cx="362.63501"
         transform="matrix(0.7346,-0.6785,0.6785,0.7346,-33.8974,296.982)"
         cx="362.63501"
         cy="191.817"
         rx="31.542999"
         ry="32.442001"
         id="ellipse364"
         d="m 394.17801,191.817 c 0,17.91722 -14.12228,32.442 -31.543,32.442 -17.42072,0 -31.543,-14.52478 -31.543,-32.442 0,-17.91722 14.12228,-32.442 31.543,-32.442 17.42072,0 31.543,14.52478 31.543,32.442 z" />
      <ellipse
         style="fill:#75342d"
         sodipodi:ry="31.655001"
         sodipodi:rx="31.007999"
         sodipodi:cy="191.806"
         sodipodi:cx="362.646"
         transform="matrix(0.7346,-0.6785,0.6785,0.7346,-33.8879,296.986)"
         cx="362.646"
         cy="191.806"
         rx="31.007999"
         ry="31.655001"
         id="ellipse366"
         d="m 393.654,191.806 c 0,17.48257 -13.88276,31.655 -31.008,31.655 -17.12525,0 -31.008,-14.17243 -31.008,-31.655 0,-17.48257 13.88275,-31.655 31.008,-31.655 17.12524,0 31.008,14.17243 31.008,31.655 z" />
      <ellipse
         style="fill:#6e332d"
         sodipodi:ry="30.868"
         sodipodi:rx="30.472"
         sodipodi:cy="191.79601"
         sodipodi:cx="362.65799"
         transform="matrix(0.7346,-0.6785,0.6785,0.7346,-33.8778,296.991)"
         cx="362.65799"
         cy="191.79601"
         rx="30.472"
         ry="30.868"
         id="ellipse368"
         d="m 393.12999,191.79601 c 0,17.04792 -13.64278,30.868 -30.472,30.868 -16.82922,0 -30.472,-13.82008 -30.472,-30.868 0,-17.04793 13.64278,-30.868 30.472,-30.868 16.82922,0 30.472,13.82007 30.472,30.868 z" />
      <ellipse
         style="fill:#68332c"
         sodipodi:ry="30.08"
         sodipodi:rx="29.937"
         sodipodi:cy="191.785"
         sodipodi:cx="362.66901"
         transform="matrix(0.7346,-0.6785,0.6785,0.7346,-33.8675,296.996)"
         cx="362.66901"
         cy="191.785"
         rx="29.937"
         ry="30.08"
         id="ellipse370"
         d="m 392.60601,191.785 c 0,16.61273 -13.40325,30.08 -29.937,30.08 -16.53375,0 -29.937,-13.46727 -29.937,-30.08 0,-16.61272 13.40325,-30.08 29.937,-30.08 16.53375,0 29.937,13.46728 29.937,30.08 z" />
      <ellipse
         style="fill:#62312c"
         sodipodi:ry="29.292999"
         sodipodi:rx="29.402"
         sodipodi:cy="191.77499"
         sodipodi:cx="362.67999"
         transform="matrix(0.7346,-0.6785,0.6785,0.7346,-33.8581,296.999)"
         cx="362.67999"
         cy="191.77499"
         rx="29.402"
         ry="29.292999"
         id="ellipse372"
         d="m 392.08199,191.77499 c 0,16.17808 -13.16372,29.293 -29.402,29.293 -16.23827,0 -29.402,-13.11492 -29.402,-29.293 0,-16.17807 13.16373,-29.293 29.402,-29.293 16.23828,0 29.402,13.11493 29.402,29.293 z" />
      <ellipse
         style="fill:#5c302b"
         sodipodi:ry="28.506001"
         sodipodi:rx="28.865999"
         sodipodi:cy="191.765"
         sodipodi:cx="362.69101"
         transform="matrix(0.7346,-0.6785,0.6785,0.7346,-33.8479,297.004)"
         cx="362.69101"
         cy="191.765"
         rx="28.865999"
         ry="28.506001"
         id="ellipse374"
         d="m 391.55701,191.765 c 0,15.74343 -12.92375,28.506 -28.866,28.506 -15.94225,0 -28.866,-12.76257 -28.866,-28.506 0,-15.74343 12.92375,-28.506 28.866,-28.506 15.94225,0 28.866,12.76257 28.866,28.506 z" />
      <ellipse
         style="fill:#562f2b"
         sodipodi:ry="27.719"
         sodipodi:rx="28.330999"
         sodipodi:cy="191.754"
         sodipodi:cx="362.703"
         transform="matrix(0.7346,-0.6785,0.6785,0.7346,-33.839,297.005)"
         cx="362.703"
         cy="191.754"
         rx="28.330999"
         ry="27.719"
         id="ellipse376"
         d="m 391.034,191.754 c 0,15.30878 -12.68422,27.719 -28.331,27.719 -15.64678,0 -28.331,-12.41022 -28.331,-27.719 0,-15.30878 12.68422,-27.719 28.331,-27.719 15.64678,0 28.331,12.41022 28.331,27.719 z" />
      <ellipse
         style="fill:#502e2a"
         sodipodi:ry="26.931999"
         sodipodi:rx="27.796"
         sodipodi:cy="191.744"
         sodipodi:cx="362.71399"
         transform="matrix(0.7346,-0.6785,0.6785,0.7346,-33.8289,297.01)"
         cx="362.71399"
         cy="191.744"
         rx="27.796"
         ry="26.931999"
         id="ellipse378"
         d="m 390.50999,191.744 c 0,14.87414 -12.44469,26.932 -27.796,26.932 -15.35131,0 -27.796,-12.05786 -27.796,-26.932 0,-14.87413 12.44469,-26.932 27.796,-26.932 15.35131,0 27.796,12.05787 27.796,26.932 z" />
      <ellipse
         style="fill:#4a2c29"
         sodipodi:ry="26.145"
         sodipodi:rx="27.26"
         sodipodi:cy="191.73399"
         sodipodi:cx="362.72501"
         transform="matrix(0.7346,-0.6785,0.6785,0.7346,-33.8181,297.018)"
         cx="362.72501"
         cy="191.73399"
         rx="27.26"
         ry="26.145"
         id="ellipse380"
         d="m 389.98501,191.73399 c 0,14.43949 -12.20472,26.145 -27.26,26.145 -15.05529,0 -27.26,-11.70551 -27.26,-26.145 0,-14.43948 12.20471,-26.145 27.26,-26.145 15.05528,0 27.26,11.70552 27.26,26.145 z" />
      <ellipse
         style="fill:#452b28"
         sodipodi:ry="25.358"
         sodipodi:rx="26.725"
         sodipodi:cy="191.72301"
         sodipodi:cx="362.737"
         transform="matrix(0.7346,-0.6785,0.6785,0.7346,-33.808,297.023)"
         cx="362.737"
         cy="191.72301"
         rx="26.725"
         ry="25.358"
         id="ellipse382"
         d="m 389.462,191.72301 c 0,14.00483 -11.96519,25.358 -26.725,25.358 -14.75981,0 -26.725,-11.35317 -26.725,-25.358 0,-14.00484 11.96519,-25.358 26.725,-25.358 14.75981,0 26.725,11.35316 26.725,25.358 z" />
      <ellipse
         style="fill:#3f2927"
         sodipodi:ry="24.570999"
         sodipodi:rx="26.190001"
         sodipodi:cy="191.713"
         sodipodi:cx="362.74799"
         transform="matrix(0.7346,-0.6785,0.6785,0.7346,-33.7992,297.023)"
         cx="362.74799"
         cy="191.713"
         rx="26.190001"
         ry="24.570999"
         id="ellipse384"
         d="m 388.93799,191.713 c 0,13.57019 -11.72567,24.571 -26.19,24.571 -14.46434,0 -26.19,-11.00081 -26.19,-24.571 0,-13.57019 11.72566,-24.571 26.19,-24.571 14.46433,0 26.19,11.00081 26.19,24.571 z" />
      <ellipse
         style="fill:#3a2826"
         sodipodi:ry="23.784"
         sodipodi:rx="25.653999"
         sodipodi:cy="191.703"
         sodipodi:cx="362.759"
         transform="matrix(0.7346,-0.6785,0.6785,0.7346,-33.7899,297.026)"
         cx="362.759"
         cy="191.703"
         rx="25.653999"
         ry="23.784"
         id="ellipse386"
         d="m 388.413,191.703 c 0,13.13554 -11.48568,23.784 -25.654,23.784 -14.16831,0 -25.654,-10.64846 -25.654,-23.784 0,-13.13554 11.48569,-23.784 25.654,-23.784 14.16832,0 25.654,10.64846 25.654,23.784 z" />
      <ellipse
         style="fill:#342625"
         sodipodi:ry="22.997"
         sodipodi:rx="25.118999"
         sodipodi:cy="191.692"
         sodipodi:cx="362.771"
         transform="matrix(0.7346,-0.6785,0.6785,0.7346,-33.7798,297.031)"
         cx="362.771"
         cy="191.692"
         rx="25.118999"
         ry="22.997"
         id="ellipse388"
         d="m 387.89,191.692 c 0,12.70089 -11.24616,22.997 -25.119,22.997 -13.87284,0 -25.119,-10.29611 -25.119,-22.997 0,-12.70089 11.24616,-22.997 25.119,-22.997 13.87284,0 25.119,10.29611 25.119,22.997 z" />
      <ellipse
         style="fill:#2f2423"
         sodipodi:ry="22.209"
         sodipodi:rx="24.584"
         sodipodi:cy="191.68201"
         sodipodi:cx="362.78101"
         transform="matrix(0.7346,-0.6785,0.6785,0.7346,-33.7689,297.039)"
         cx="362.78101"
         cy="191.68201"
         rx="24.584"
         ry="22.209"
         id="ellipse390"
         d="m 387.36501,191.68201 c 0,12.26569 -11.00664,22.209 -24.584,22.209 -13.57737,0 -24.584,-9.94331 -24.584,-22.209 0,-12.26569 11.00663,-22.209 24.584,-22.209 13.57736,0 24.584,9.94331 24.584,22.209 z" />
      <ellipse
         style="fill:#292122"
         sodipodi:ry="21.422001"
         sodipodi:rx="24.048"
         sodipodi:cy="191.67101"
         sodipodi:cx="362.793"
         transform="matrix(0.7346,-0.6785,0.6785,0.7346,-33.7594,297.041)"
         cx="362.793"
         cy="191.67101"
         rx="24.048"
         ry="21.422001"
         id="ellipse392"
         d="m 386.841,191.67101 c 0,11.83104 -10.76666,21.422 -24.048,21.422 -13.28134,0 -24.048,-9.59096 -24.048,-21.422 0,-11.83105 10.76666,-21.42201 24.048,-21.42201 13.28134,0 24.048,9.59096 24.048,21.42201 z" />
      <ellipse
         style="fill:#231f20"
         sodipodi:ry="20.635"
         sodipodi:rx="23.513"
         sodipodi:cy="191.661"
         sodipodi:cx="362.80399"
         transform="matrix(0.7346,-0.6785,0.6785,0.7346,-33.7502,297.044)"
         cx="362.80399"
         cy="191.661"
         rx="23.513"
         ry="20.635"
         id="ellipse394"
         d="m 386.31699,191.661 c 0,11.39639 -10.52713,20.635 -23.513,20.635 -12.98588,0 -23.513,-9.23861 -23.513,-20.635 0,-11.3964 10.52712,-20.635 23.513,-20.635 12.98587,0 23.513,9.2386 23.513,20.635 z" />
    </g>
    <text
       y="84.70224"
       x="73.771652"
       style="font-size:20.39999962px;fill:#ffffff;font-family:Myriad-Roman"
       font-size="20.4"
       id="text553">B</text>
  </g>
</svg>
