<?xml version="1.0" encoding="UTF-8" standalone="no"?>
<!-- Created with Inkscape (http://www.inkscape.org/) -->

<svg
   xmlns:svg="http://www.w3.org/2000/svg"
   xmlns="http://www.w3.org/2000/svg"
   version="1.1"
   width="118"
   height="118"
   id="svg5644">
  <defs
     id="defs5646" />
  <g
     transform="translate(0,-934.36218)"
     id="layer1">
    <g
       transform="translate(-635.36652,798.97989)"
       id="g396">
      <g
         id="g398">
        <ellipse
           cx="694.15002"
           cy="193.63"
           rx="49.685001"
           ry="48.734001"
           transform="matrix(0.7346,-0.6785,0.6785,0.7346,52.8707,522.413)"
           id="ellipse400"
           style="fill:#ea242a" />
        <g
           id="g402">
          <ellipse
             cx="698.00299"
             cy="191.265"
             rx="39.037998"
             ry="43.463001"
             transform="matrix(0.7345,-0.6786,0.6786,0.7345,55.502,524.407)"
             id="ellipse404"
             style="fill:#ea242a" />
          <ellipse
             cx="698.01501"
             cy="191.255"
             rx="38.502998"
             ry="42.675999"
             transform="matrix(0.7346,-0.6786,0.6786,0.7346,55.5108,524.409)"
             id="ellipse406"
             style="fill:#df282b" />
          <ellipse
             cx="698.026"
             cy="191.245"
             rx="37.966999"
             ry="41.889"
             transform="matrix(0.7346,-0.6785,0.6785,0.7346,55.5181,524.409)"
             id="ellipse408"
             style="fill:#d62a2b" />
          <ellipse
             cx="698.03802"
             cy="191.23399"
             rx="37.431999"
             ry="41.102001"
             transform="matrix(0.7345,-0.6786,0.6786,0.7345,55.5317,524.42)"
             id="ellipse410"
             style="fill:#ce2d2c" />
          <ellipse
             cx="698.04901"
             cy="191.224"
             rx="36.896999"
             ry="40.313999"
             transform="matrix(0.7346,-0.6786,0.6786,0.7346,55.5405,524.423)"
             id="ellipse412"
             style="fill:#c5302d" />
          <ellipse
             cx="698.06"
             cy="191.213"
             rx="36.361"
             ry="39.527"
             transform="matrix(0.7346,-0.6786,0.6786,0.7346,55.5507,524.428)"
             id="ellipse414"
             style="fill:#be322d" />
          <ellipse
             cx="698.07098"
             cy="191.203"
             rx="35.826"
             ry="38.740002"
             transform="matrix(0.7346,-0.6786,0.6786,0.7346,55.5593,524.43)"
             id="ellipse416"
             style="fill:#b6332d" />
          <ellipse
             cx="698.08197"
             cy="191.19299"
             rx="35.291"
             ry="37.952999"
             transform="matrix(0.7346,-0.6786,0.6786,0.7346,55.5699,524.436)"
             id="ellipse418"
             style="fill:#ae342e" />
          <ellipse
             cx="698.09399"
             cy="191.18201"
             rx="34.755001"
             ry="37.166"
             transform="matrix(0.7345,-0.6786,0.6786,0.7345,55.5818,524.445)"
             id="ellipse420"
             style="fill:#a6352e" />
          <ellipse
             cx="698.10498"
             cy="191.172"
             rx="34.220001"
             ry="36.379002"
             transform="matrix(0.7346,-0.6785,0.6785,0.7346,55.589,524.444)"
             id="ellipse422"
             style="fill:#9f362e" />
          <ellipse
             cx="698.11603"
             cy="191.162"
             rx="33.683998"
             ry="35.591"
             transform="matrix(0.7346,-0.6785,0.6785,0.7346,55.5975,524.446)"
             id="ellipse424"
             style="fill:#98352e" />
          <ellipse
             cx="698.12701"
             cy="191.151"
             rx="33.148998"
             ry="34.804001"
             transform="matrix(0.7346,-0.6785,0.6785,0.7346,55.6081,524.452)"
             id="ellipse426"
             style="fill:#91362e" />
          <ellipse
             cx="698.13898"
             cy="191.14101"
             rx="32.613998"
             ry="34.016998"
             transform="matrix(0.7346,-0.6785,0.6785,0.7346,55.6149,524.451)"
             id="ellipse428"
             style="fill:#89362e" />
          <ellipse
             cx="698.15002"
             cy="191.13"
             rx="32.077999"
             ry="33.23"
             transform="matrix(0.7346,-0.6785,0.6785,0.7346,55.627,524.46)"
             id="ellipse430"
             style="fill:#83352e" />
          <ellipse
             cx="698.16199"
             cy="191.12"
             rx="31.542999"
             ry="32.443001"
             transform="matrix(0.7346,-0.6785,0.6785,0.7346,55.6354,524.462)"
             id="ellipse432"
             style="fill:#7b342d" />
          <ellipse
             cx="698.172"
             cy="191.10899"
             rx="31.007999"
             ry="31.655001"
             transform="matrix(0.7346,-0.6785,0.6785,0.7346,55.6476,524.47)"
             id="ellipse434"
             style="fill:#75342d" />
          <ellipse
             cx="698.18402"
             cy="191.099"
             rx="30.472"
             ry="30.868"
             transform="matrix(0.7346,-0.6785,0.6785,0.7346,55.6561,524.472)"
             id="ellipse436"
             style="fill:#6e332d" />
          <ellipse
             cx="698.19501"
             cy="191.089"
             rx="29.937"
             ry="30.080999"
             transform="matrix(0.7346,-0.6785,0.6785,0.7346,55.6683,524.482)"
             id="ellipse438"
             style="fill:#68332c" />
          <ellipse
             cx="698.20697"
             cy="191.078"
             rx="29.400999"
             ry="29.294001"
             transform="matrix(0.7346,-0.6785,0.6785,0.7346,55.6748,524.479)"
             id="ellipse440"
             style="fill:#62312c" />
          <ellipse
             cx="698.21802"
             cy="191.06799"
             rx="28.865999"
             ry="28.507"
             transform="matrix(0.7346,-0.6785,0.6785,0.7346,55.6854,524.485)"
             id="ellipse442"
             style="fill:#5c302b" />
          <ellipse
             cx="698.229"
             cy="191.058"
             rx="28.330999"
             ry="27.719"
             transform="matrix(0.7346,-0.6785,0.6785,0.7346,55.6936,524.487)"
             id="ellipse444"
             style="fill:#562f2b" />
          <ellipse
             cx="698.23999"
             cy="191.047"
             rx="27.796"
             ry="26.931999"
             transform="matrix(0.7346,-0.6785,0.6785,0.7346,55.6998,524.484)"
             id="ellipse446"
             style="fill:#502e2a" />
          <ellipse
             cx="698.25201"
             cy="191.037"
             rx="27.26"
             ry="26.146"
             transform="matrix(0.7346,-0.6785,0.6785,0.7346,55.7121,524.494)"
             id="ellipse448"
             style="fill:#4a2c29" />
          <ellipse
             cx="698.263"
             cy="191.026"
             rx="26.725"
             ry="25.358999"
             transform="matrix(0.7346,-0.6785,0.6785,0.7346,55.7225,524.499)"
             id="ellipse450"
             style="fill:#452b28" />
          <ellipse
             cx="698.27399"
             cy="191.01601"
             rx="26.190001"
             ry="24.570999"
             transform="matrix(0.7346,-0.6785,0.6785,0.7346,55.7307,524.5)"
             id="ellipse452"
             style="fill:#3f2927" />
          <ellipse
             cx="698.28497"
             cy="191.006"
             rx="25.653999"
             ry="23.784"
             transform="matrix(0.7346,-0.6785,0.6785,0.7346,55.7407,524.505)"
             id="ellipse454"
             style="fill:#3a2826" />
          <ellipse
             cx="698.29602"
             cy="190.995"
             rx="25.118999"
             ry="22.996"
             transform="matrix(0.7346,-0.6785,0.6785,0.7346,55.7486,524.506)"
             id="ellipse456"
             style="fill:#342625" />
          <ellipse
             cx="698.30798"
             cy="190.985"
             rx="24.583"
             ry="22.209999"
             transform="matrix(0.7346,-0.6785,0.6785,0.7346,55.7637,524.521)"
             id="ellipse458"
             style="fill:#2f2423" />
          <ellipse
             cx="698.31897"
             cy="190.974"
             rx="24.048"
             ry="21.422001"
             transform="matrix(0.7346,-0.6785,0.6785,0.7346,55.7693,524.517)"
             id="ellipse460"
             style="fill:#292122" />
          <ellipse
             cx="698.33099"
             cy="190.964"
             rx="23.513"
             ry="20.635"
             transform="matrix(0.7346,-0.6785,0.6785,0.7346,55.7771,524.518)"
             id="ellipse462"
             style="fill:#231f20" />
        </g>
      </g>
      <line
         style="fill:none;stroke:#000000;stroke-width:2"
         x1="674.90302"
         y1="148.658"
         x2="670.37"
         y2="139.591"
         id="line464" />
      <line
         style="fill:none;stroke:#000000;stroke-width:2"
         x1="658.44202"
         y1="160.51199"
         x2="651.35901"
         y2="153.145"
         id="line466" />
      <line
         style="fill:none;stroke:#000000;stroke-width:2"
         x1="648.64502"
         y1="175.601"
         x2="639.862"
         y2="171.351"
         id="line468" />
      <line
         style="fill:none;stroke:#000000;stroke-width:2"
         x1="645.008"
         y1="193.332"
         x2="635.64001"
         y2="193.049"
         id="line470" />
      <line
         style="fill:none;stroke:#000000;stroke-width:2"
         x1="647.466"
         y1="210.196"
         x2="638.20801"
         y2="212.123"
         id="line472" />
      <line
         style="fill:none;stroke:#000000;stroke-width:2"
         x1="654.35699"
         y1="223.713"
         x2="646.70801"
         y2="230.513"
         id="line474" />
      <line
         style="fill:none;stroke:#000000;stroke-width:2"
         x1="666.85797"
         y1="235.15601"
         x2="661.59802"
         y2="243.82899"
         id="line476" />
      <line
         style="fill:none;stroke:#000000;stroke-width:2"
         x1="679.78802"
         y1="240.83"
         x2="677.20502"
         y2="249.879"
         id="line478" />
      <line
         style="fill:none;stroke:#000000;stroke-width:2"
         x1="694.54498"
         y1="243.035"
         x2="694.828"
         y2="252.51199"
         id="line480" />
      <line
         style="fill:none;stroke:#000000;stroke-width:2"
         x1="711.82501"
         y1="239.39"
         x2="714.39801"
         y2="249.01801"
         id="line482" />
      <line
         style="fill:none;stroke:#000000;stroke-width:2"
         x1="722.31201"
         y1="233.401"
         x2="726.84497"
         y2="240.76801"
         id="line484" />
      <line
         style="fill:none;stroke:#000000;stroke-width:2"
         x1="732.79498"
         y1="223.76801"
         x2="739.37598"
         y2="228.48399"
         id="line486" />
      <line
         style="fill:none;stroke:#000000;stroke-width:2"
         x1="740.09698"
         y1="210.68201"
         x2="746.89001"
         y2="214.043"
         id="line488" />
      <line
         style="fill:none;stroke:#000000;stroke-width:2"
         x1="743.23199"
         y1="196.422"
         x2="751.09302"
         y2="196.98801"
         id="line490" />
      <line
         style="fill:none;stroke:#000000;stroke-width:2"
         x1="742.383"
         y1="182.08"
         x2="749.43799"
         y2="180.575"
         id="line492" />
      <line
         style="fill:none;stroke:#000000;stroke-width:2"
         x1="737.53601"
         y1="169.198"
         x2="743.89301"
         y2="165.03101"
         id="line494" />
      <line
         style="fill:none;stroke:#000000;stroke-width:2"
         x1="730.172"
         y1="159.095"
         x2="735.94897"
         y2="154.214"
         id="line496" />
      <line
         style="fill:none;stroke:#000000;stroke-width:2"
         x1="721.17798"
         y1="152.084"
         x2="725.72998"
         y2="145.83299"
         id="line498" />
      <line
         style="fill:none;stroke:#000000;stroke-width:2"
         x1="710.41803"
         y1="146.826"
         x2="713.573"
         y2="138.963"
         id="line500" />
      <line
         style="fill:none;stroke:#000000;stroke-width:2"
         x1="693.97803"
         y1="144.151"
         x2="693.97803"
         y2="136.82401"
         id="line502" />
    </g>
    <text
       x="54.489456"
       y="999.25787"
       id="text557"
       style="font-size:20.39999962px;fill:#ffffff;font-family:Myriad-Roman">O</text>
  </g>
</svg>
