<?xml version="1.0" encoding="UTF-8" standalone="no"?>
<!-- Created with Inkscape (http://www.inkscape.org/) -->

<svg
   xmlns:svg="http://www.w3.org/2000/svg"
   xmlns="http://www.w3.org/2000/svg"
   version="1.1"
   width="149"
   height="149"
   id="svg5357">
  <defs
     id="defs5359" />
  <g
     transform="translate(0,-903.36217)"
     id="layer1">
    <ellipse
       cx="518.42297"
       cy="194.627"
       rx="49.686001"
       ry="48.733002"
       transform="matrix(0.73459997,-0.67849998,0.67849998,0.73459997,-437.67258,1188.4283)"
       id="ellipse180"
       style="fill:#ea242a" />
    <g
       transform="translate(-443.22078,784.99231)"
       id="g182">
      <ellipse
         cx="522.27698"
         cy="192.26199"
         rx="39.037998"
         ry="43.463001"
         transform="matrix(0.7345,-0.6786,0.6786,0.7345,8.1807,405.435)"
         id="ellipse184"
         style="fill:#ea242a" />
      <ellipse
         cx="522.28802"
         cy="192.252"
         rx="38.502998"
         ry="42.675999"
         transform="matrix(0.7345,-0.6786,0.6786,0.7345,8.1899,405.439)"
         id="ellipse186"
         style="fill:#df282b" />
      <ellipse
         cx="522.29901"
         cy="192.241"
         rx="37.967999"
         ry="41.888"
         transform="matrix(0.7345,-0.6786,0.6786,0.7345,8.1984,405.439)"
         id="ellipse188"
         style="fill:#d62a2b" />
      <ellipse
         cx="522.31097"
         cy="192.231"
         rx="37.431999"
         ry="41.102001"
         transform="matrix(0.7345,-0.6786,0.6786,0.7345,8.2108,405.45)"
         id="ellipse190"
         style="fill:#ce2d2c" />
      <ellipse
         cx="522.32202"
         cy="192.22"
         rx="36.896999"
         ry="40.313999"
         transform="matrix(0.7345,-0.6786,0.6786,0.7345,8.22,405.453)"
         id="ellipse192"
         style="fill:#c5302d" />
      <ellipse
         cx="522.33301"
         cy="192.21001"
         rx="36.361"
         ry="39.527"
         transform="matrix(0.7345,-0.6786,0.6786,0.7345,8.2301,405.458)"
         id="ellipse194"
         style="fill:#be322d" />
      <ellipse
         cx="522.34399"
         cy="192.2"
         rx="35.826"
         ry="38.738998"
         transform="matrix(0.7345,-0.6786,0.6786,0.7345,8.2393,405.461)"
         id="ellipse196"
         style="fill:#b6332d" />
      <ellipse
         cx="522.35602"
         cy="192.189"
         rx="35.290001"
         ry="37.952999"
         transform="matrix(0.7345,-0.6786,0.6786,0.7345,8.2506,405.469)"
         id="ellipse198"
         style="fill:#ae342e" />
      <ellipse
         cx="522.367"
         cy="192.179"
         rx="34.755001"
         ry="37.166"
         transform="matrix(0.7345,-0.6786,0.6786,0.7345,8.261,405.475)"
         id="ellipse200"
         style="fill:#a6352e" />
      <ellipse
         cx="522.37799"
         cy="192.168"
         rx="34.220001"
         ry="36.379002"
         transform="matrix(0.7345,-0.6786,0.6786,0.7345,8.2692,405.475)"
         id="ellipse202"
         style="fill:#9f362e" />
      <ellipse
         cx="522.39001"
         cy="192.158"
         rx="33.685001"
         ry="35.591"
         transform="matrix(0.7346,-0.6786,0.6786,0.7346,8.2783,405.478)"
         id="ellipse204"
         style="fill:#98352e" />
      <ellipse
         cx="522.401"
         cy="192.14799"
         rx="33.148998"
         ry="34.805"
         transform="matrix(0.7345,-0.6786,0.6786,0.7345,8.2897,405.486)"
         id="ellipse206"
         style="fill:#91362e" />
      <ellipse
         cx="522.41302"
         cy="192.13699"
         rx="32.613998"
         ry="34.016998"
         transform="matrix(0.7346,-0.6786,0.6786,0.7346,8.2978,405.486)"
         id="ellipse208"
         style="fill:#89362e" />
      <ellipse
         cx="522.42401"
         cy="192.127"
         rx="32.078999"
         ry="33.23"
         transform="matrix(0.7346,-0.6786,0.6786,0.7346,8.3082,405.492)"
         id="ellipse210"
         style="fill:#83352e" />
      <ellipse
         cx="522.435"
         cy="192.117"
         rx="31.542999"
         ry="32.443001"
         transform="matrix(0.7346,-0.6785,0.6785,0.7346,8.3172,405.494)"
         id="ellipse212"
         style="fill:#7b342d" />
      <ellipse
         cx="522.44598"
         cy="192.106"
         rx="31.007"
         ry="31.656"
         transform="matrix(0.7345,-0.6786,0.6786,0.7345,8.3298,405.505)"
         id="ellipse214"
         style="fill:#75342d" />
      <ellipse
         cx="522.45801"
         cy="192.09599"
         rx="30.472"
         ry="30.868"
         transform="matrix(0.7345,-0.6786,0.6786,0.7345,8.3388,405.508)"
         id="ellipse216"
         style="fill:#6e332d" />
      <ellipse
         cx="522.46899"
         cy="192.08501"
         rx="29.937"
         ry="30.080999"
         transform="matrix(0.7345,-0.6786,0.6786,0.7345,8.3492,405.513)"
         id="ellipse218"
         style="fill:#68332c" />
      <ellipse
         cx="522.47998"
         cy="192.075"
         rx="29.402"
         ry="29.292999"
         transform="matrix(0.7346,-0.6785,0.6785,0.7346,8.3571,405.513)"
         id="ellipse220"
         style="fill:#62312c" />
      <ellipse
         cx="522.492"
         cy="192.065"
         rx="28.865999"
         ry="28.507"
         transform="matrix(0.7346,-0.6786,0.6786,0.7346,8.3686,405.522)"
         id="ellipse222"
         style="fill:#5c302b" />
      <ellipse
         cx="522.50299"
         cy="192.054"
         rx="28.330999"
         ry="27.719999"
         transform="matrix(0.7346,-0.6785,0.6785,0.7346,8.3775,405.524)"
         id="ellipse224"
         style="fill:#562f2b" />
      <ellipse
         cx="522.51398"
         cy="192.04401"
         rx="27.795"
         ry="26.933001"
         transform="matrix(0.7346,-0.6785,0.6785,0.7346,8.3853,405.523)"
         id="ellipse226"
         style="fill:#502e2a" />
      <ellipse
         cx="522.52502"
         cy="192.033"
         rx="27.26"
         ry="26.145"
         transform="matrix(0.7346,-0.6785,0.6785,0.7346,8.3956,405.529)"
         id="ellipse228"
         style="fill:#4a2c29" />
      <ellipse
         cx="522.53699"
         cy="192.02299"
         rx="26.725"
         ry="25.358999"
         transform="matrix(0.7346,-0.6785,0.6785,0.7346,8.4072,405.538)"
         id="ellipse230"
         style="fill:#452b28" />
      <ellipse
         cx="522.54797"
         cy="192.013"
         rx="26.190001"
         ry="24.570999"
         transform="matrix(0.7346,-0.6785,0.6785,0.7346,8.416,405.54)"
         id="ellipse232"
         style="fill:#3f2927" />
      <ellipse
         cx="522.55902"
         cy="192.002"
         rx="25.653999"
         ry="23.784"
         transform="matrix(0.7346,-0.6785,0.6785,0.7346,8.4261,405.545)"
         id="ellipse234"
         style="fill:#3a2826" />
      <ellipse
         cx="522.57001"
         cy="191.992"
         rx="25.118999"
         ry="22.997"
         transform="matrix(0.7346,-0.6785,0.6785,0.7346,8.4349,405.547)"
         id="ellipse236"
         style="fill:#342625" />
      <ellipse
         cx="522.58197"
         cy="191.98199"
         rx="24.583"
         ry="22.209999"
         transform="matrix(0.7346,-0.6786,0.6786,0.7346,8.4484,405.56)"
         id="ellipse238"
         style="fill:#2f2423" />
      <ellipse
         cx="522.59302"
         cy="191.97099"
         rx="24.048"
         ry="21.422001"
         transform="matrix(0.7346,-0.6785,0.6785,0.7346,8.4557,405.558)"
         id="ellipse240"
         style="fill:#292122" />
      <ellipse
         cx="522.604"
         cy="191.961"
         rx="23.511999"
         ry="20.635"
         transform="matrix(0.7346,-0.6785,0.6785,0.7346,8.4643,405.559)"
         id="ellipse242"
         style="fill:#231f20" />
    </g>
    <line
       style="fill:none;stroke:#000000;stroke-width:2"
       x1="110.0922"
       y1="943.9823"
       x2="118.77219"
       y2="933.0343"
       id="line244" />
    <rect
       width="10.916084"
       height="10.918084"
       x="-941.60907"
       y="-18.253048"
       transform="matrix(-0.1438989,-0.98959239,0.98959239,-0.1438989,0,0)"
       id="rect246"
       style="fill:#007070" />
    <line
       style="fill:none;stroke:#000000;stroke-width:2"
       x1="122.95823"
       y1="990.97028"
       x2="136.1732"
       y2="995.50238"
       id="line248" />
    <rect
       width="10.918045"
       height="10.917045"
       x="-344.18686"
       y="942.87915"
       transform="matrix(0.8849963,-0.46559805,0.46559805,0.8849963,0,0)"
       id="rect250"
       style="fill:#007070" />
    <line
       style="fill:none;stroke:#000000;stroke-width:2"
       x1="76.1782"
       y1="930.72931"
       x2="76.276222"
       y2="916.75726"
       id="line252" />
    <rect
       width="10.917533"
       height="10.916533"
       x="-689.94269"
       y="-611.40179"
       transform="matrix(-0.7227309,-0.69112955,0.69112955,-0.7227309,0,0)"
       id="rect254"
       style="fill:#007070" />
    <line
       style="fill:none;stroke:#000000;stroke-width:2"
       x1="26.85322"
       y1="973.18329"
       x2="13.734203"
       y2="968.3783"
       id="line256" />
    <rect
       width="10.916668"
       height="10.917668"
       x="419.57986"
       y="-873.84192"
       transform="matrix(-0.89442719,0.44721359,-0.44721359,-0.89442719,0,0)"
       id="rect258"
       style="fill:#007070" />
    <line
       style="fill:none;stroke:#000000;stroke-width:2"
       x1="43.716232"
       y1="1017.4874"
       x2="35.368206"
       y2="1028.6914"
       id="line260" />
    <rect
       width="10.916824"
       height="10.915826"
       x="1018.0042"
       y="142.20924"
       transform="matrix(0.17360277,0.98481576,-0.98481576,0.17360277,0,0)"
       id="rect262"
       style="fill:#007070" />
    <line
       style="fill:none;stroke:#000000;stroke-width:2"
       x1="91.545204"
       y1="1025.6244"
       x2="95.965187"
       y2="1038.8784"
       id="line264" />
    <rect
       width="10.916542"
       height="10.916542"
       x="522.8266"
       y="900.56567"
       transform="matrix(0.90723801,0.42061763,-0.42061763,0.90723801,0,0)"
       id="rect266"
       style="fill:#007070" />
    <line
       style="fill:none;stroke:#000000;stroke-width:2"
       x1="122.19321"
       y1="964.1673"
       x2="131.96123"
       y2="959.01331"
       id="line268" />
    <ellipse
       cx="580.552"
       cy="171.427"
       rx="5.7740002"
       ry="5.6560001"
       transform="matrix(0.20769999,-0.97819997,0.97819997,0.20769999,-150.93679,1488.7053)"
       id="ellipse270"
       style="fill:#bd1a8d;stroke:#000000" />
    <line
       style="fill:none;stroke:#000000;stroke-width:2"
       x1="112.48222"
       y1="1010.7883"
       x2="122.01524"
       y2="1016.3633"
       id="line272" />
    <ellipse
       cx="570.27502"
       cy="234.562"
       rx="5.7740002"
       ry="5.6560001"
       transform="matrix(0.94039997,-0.33999999,0.33999999,0.94039997,-488.99758,992.85129)"
       id="ellipse274"
       style="fill:#bd1a8d;stroke:#000000" />
    <line
       style="fill:none;stroke:#000000;stroke-width:2"
       x1="67.940224"
       y1="1028.2004"
       x2="66.912209"
       y2="1039.1974"
       id="line276" />
    <ellipse
       cx="509.36801"
       cy="260.12"
       rx="5.7740002"
       ry="5.6560001"
       transform="matrix(0.70529998,0.70889998,-0.70889998,0.70529998,-108.73079,500.56132)"
       id="ellipse278"
       style="fill:#bd1a8d;stroke:#000000" />
    <line
       style="fill:none;stroke:#000000;stroke-width:2"
       x1="28.757212"
       y1="996.47333"
       x2="18.794231"
       y2="1001.2374"
       id="line280" />
    <ellipse
       cx="456.54501"
       cy="218.625"
       rx="5.7740002"
       ry="5.6550002"
       transform="matrix(-0.24629999,0.96919997,-0.96919997,-0.24629999,337.6712,614.99232)"
       id="ellipse282"
       style="fill:#bd1a8d;stroke:#000000" />
    <line
       style="fill:none;stroke:#000000;stroke-width:2"
       x1="42.883224"
       y1="943.2973"
       x2="35.241222"
       y2="935.32526"
       id="line284" />
    <ellipse
       cx="474.48999"
       cy="145.884"
       rx="5.7740002"
       ry="5.6560001"
       transform="matrix(-0.99759997,0.0694,-0.0694,-0.99759997,514.74219,1043.4663)"
       id="ellipse286"
       style="fill:#bd1a8d;stroke:#000000" />
    <text
       x="65.985199"
       y="985.1203"
       id="text555"
       style="font-size:20.39999962px;fill:#ffffff;font-family:Myriad-Roman">AB</text>
  </g>
</svg>
